<svg xmlns="http://www.w3.org/2000/svg" width="31.7" height="28.5" viewBox="0 0 31.7 28.5"><path fill="none" stroke="currentColor" stroke-width="2" stroke-miterlimit="10" d="M7.3 10.4c-2.9-2.8-3.2-5.7-.9-8 2-1.9 5.2-1.8 7.1.2 2.1 2.3 1.7 5.2-1.1 7.8.2.1.4.2.7.3 3.5 1.4 5.7 4.5 5.7 8.3 0 1.2-.7 2-2 2H2.9c-1.3 0-2-.8-2-2.1C1 15 3 12.3 6.5 10.7c.3-.1.6-.2.8-.3z"/><path fill="currentColor" d="M20.1 27v-4.5h-4.5v-5.6h4.5v-4.6h5.6v4.6h4.5v5.6h-4.5V27z"/><path fill="#DCDCDD" d="M24.2 13.8v4.6h4.5V21h-4.5v4.5h-2.6V21h-4.5v-2.6h4.5v-4.6h2.6m3-3h-8.6v4.6h-4.5V24h4.5v4.5h8.6V24h4.5v-8.6h-4.5v-4.6z"/></svg>
