<svg xmlns="http://www.w3.org/2000/svg" width="9.9" height="21.4" viewBox="0 0 9.9 21.4"><path fill="#FFF" d="M.6 12.1c-.2-.3-.4-.6-.6-1 .7-.5 1.4-1.1 2.1-1.6 1.2-.9 2.5-1.6 4-1.9.4-.1.7-.1 1.1-.1.7 0 1.2.4 1.2 1.1 0 .7-.1 1.4-.3 2-.5 2.1-1.1 4.2-1.6 6.2 0 .1-.1.3-.1.4-.1.6.1.8.7.6.6-.2 1.2-.6 1.7-.9.1-.1.2-.2.4-.3.2.3.4.6.7.9-.7.6-1.3 1.2-2 1.7-1.2.9-2.6 1.6-4.1 2-.1 0-.3 0-.4.1-1 .1-1.6-.5-1.7-1.5-.1-1 .2-1.9.4-2.8.4-1.8.9-3.7 1.3-5.5.1-.6 0-.7-.5-.5-.5.1-.9.4-1.4.6-.4.1-.6.3-.9.5zM5.9 4.8C4 4.8 3.1 3.5 3.7 1.9 4.1.7 5.4-.1 6.6 0 8.2.1 9 1.6 8.3 3.1c-.5 1.1-1.4 1.7-2.4 1.7z"/></svg>