<svg xmlns="http://www.w3.org/2000/svg" width="150.8" height="44.9" viewBox="0 0 150.8 44.9"><path fill="none" d="M35.7 29.3c.2 1.6.5 3.3.9 4.9 1.5-1.8 2.6-3.9 3.3-6.2-1.5-.5-3-.9-4.5-1.3.1.9.2 1.8.3 2.6zM25.8 32.4l3 .3c1.6.2 3.1.5 4.6.9-.4-1.5-.6-3-.9-4.6-.1-1-.2-1.9-.3-2.9-2.3-.4-4.7-.7-7.1-.8 0 2.5.3 4.8.7 7.1zM25 22.9c1.8.1 3.6.3 5.4.5.6.1 1.2.2 1.7.3v-1.2-1.2c-.6.1-1.2.2-1.7.3-.4.1-.8.1-1.3.2H29c-1.3.2-2.6.3-4 .3v.8zM32.2 18.8c.1-1 .2-2 .3-2.9.2-1.5.5-3.1.9-4.6-1.5.4-3 .6-4.6.9l-3 .3c-.4 2.3-.6 4.7-.8 7.1 2.5-.2 4.8-.4 7.2-.8zM92.4 27.3c1.4 0 2.5-.5 3.5-1.4 1-1 1.5-2.2 1.5-3.5 0-1.4-.5-2.5-1.5-3.5s-2.1-1.5-3.5-1.5-2.5.5-3.5 1.5-1.4 2.1-1.4 3.5.5 2.5 1.4 3.5c1 1 2.2 1.4 3.5 1.4zM35.4 18.1c1.5-.4 3.1-.8 4.5-1.3-.7-2.3-1.9-4.4-3.3-6.2-.4 1.6-.7 3.2-.9 4.9-.1.9-.2 1.8-.3 2.6zM26.4 35.9c.1.7.3 1.3.5 2 .2.8.5 1.6.8 2.4 2.2-.7 4.2-1.8 6-3.2-1.6-.4-3.1-.7-4.7-.9-.9-.2-1.7-.2-2.6-.3zM12.2 26.1c-.1 1-.2 2-.3 2.9-.2 1.5-.5 3.1-.9 4.6 1.5-.4 3-.6 4.6-.9l3-.3c.4-2.3.6-4.7.8-7.1-2.5.2-4.9.4-7.2.8zM8.6 15.6c-.2-1.6-.5-3.3-.9-4.9-1.5 1.8-2.6 3.9-3.3 6.2 1.5.5 3 .9 4.5 1.3-.1-.9-.2-1.8-.3-2.6zM23.3 32.3c-.2-1.2-.3-2.4-.5-3.6-.1-1.1-.2-2.3-.3-3.4h-.8c-.1 1.2-.1 2.3-.3 3.4-.1 1.2-.3 2.4-.5 3.6H23.3zM19.4 22.1c-1.3-.1-2.7-.2-4-.3h-.1c-.4 0-.8-.1-1.2-.2-.6-.1-1.2-.2-1.7-.3v2.4c.6-.1 1.2-.2 1.7-.3.4-.1.9-.1 1.3-.2h.1c1.3-.2 2.6-.3 4-.3v-.4c0-.1-.1-.3-.1-.4zM15.4 36.2c-1.6.2-3.2.5-4.7.9 1.8 1.4 3.8 2.5 6 3.2.3-.8.5-1.6.8-2.4.2-.7.3-1.3.5-2-.9.1-1.8.1-2.6.3zM17.9 9c-.1-.7-.3-1.3-.5-2-.2-.8-.5-1.6-.8-2.4-2.2.7-4.2 1.8-6 3.2 1.6.4 3.1.7 4.7.9.9.2 1.8.3 2.6.3zM8.9 26.8c-1.5.4-3.1.8-4.5 1.3.7 2.3 1.9 4.4 3.3 6.2.4-1.6.7-3.2.9-4.9.1-.9.2-1.8.3-2.6zM92.6 32.8c-.4 0-.7 0-.8.1v2.2h.8c.8 0 1.4-.5 1.4-1.2 0-.8-.6-1.1-1.4-1.1zM18.6 12.5l-3-.3c-1.5-.2-3.1-.5-4.6-.9.4 1.5.6 3 .9 4.6.1 1 .2 1.9.3 2.9 2.3.4 4.7.7 7.1.8-.1-2.4-.3-4.8-.7-7.1zM21 12.6c.2 1.2.3 2.4.5 3.6.1 1.1.2 2.3.3 3.4h.8c.1-1.2.1-2.3.3-3.4.1-1.2.3-2.4.5-3.6H21zM29 8.7c1.6-.2 3.2-.5 4.7-.9-1.8-1.4-3.8-2.5-6-3.2-.3.8-.5 1.6-.8 2.4-.2.7-.3 1.3-.5 2 .9 0 1.7-.1 2.6-.3zM121.5 32.7c-1.3 0-2 1.2-2 2.5s.7 2.5 1.9 2.5c1.3 0 2-1.2 2-2.5.1-1.2-.6-2.5-1.9-2.5zM114.1 25.5c0-.2 0-.5-.1-.7-.1-.2-.2-.4-.4-.6-.2-.2-.4-.3-.6-.4-.2-.1-.5-.1-.7-.1h-5.6v3.7h5.6c.2 0 .5 0 .7-.1.2-.1.4-.2.6-.4.2-.2.3-.4.4-.6.1-.3.1-.6.1-.8zM113 21c.2-.1.4-.2.6-.4s.3-.4.4-.6c.1-.2.1-.5.1-.7 0-.2 0-.5-.1-.7-.1-.2-.2-.4-.4-.6-.2-.2-.4-.3-.6-.4-.2-.1-.5-.1-.7-.1h-5.6v3.7h5.6c.2 0 .5-.1.7-.2zM126.2 24.9h4.4l-2.2-4.4zM103.1 32.8c-.4 0-.7 0-.9.1v4.8h.8c1.7 0 2.6-.9 2.6-2.6 0-1.4-.8-2.3-2.5-2.3zM97.9 32.9c-.1.4-.2.7-.3 1.1l-.6 1.8h1.8l-.5-1.8c-.2-.4-.3-.8-.4-1.1z"/><path opacity=".5" fill="#FFF" d="M9.7 36.3c.2.3.6.5.9.8 1.6-.4 3.1-.7 4.7-.9.8-.1 1.7-.2 2.5-.3-.1.7-.3 1.3-.5 2 .3-1 .6-2.1.8-3.1-.8.1-1.6.2-2.3.3-2 .2-4.1.6-6.1 1.2zM9.9 26.4c-1.9.4-3.7 1-5.6 1.6v.1c1.5-.5 3-.9 4.5-1.3-.1.9-.2 1.7-.3 2.6-.2 1.6-.5 3.3-.9 4.9.2.3.4.5.6.8V35c.6-2 1-4.1 1.3-6.1.2-.9.3-1.7.4-2.5zM8.4 10c-.2.2-.4.4-.6.7.4 1.6.7 3.2.9 4.9.1.8.2 1.7.3 2.6-1.5-.4-3.1-.8-4.5-1.3v.1c1.8.6 3.7 1.1 5.6 1.6-.1-.8-.2-1.6-.3-2.3-.4-2.2-.9-4.3-1.4-6.3zM19.3 19.6c-2.4-.1-4.8-.4-7.1-.8v.2c.1 0 .3 0 .4.1 2.3.4 4.6.7 6.9.8-.1-2.4-.4-4.7-.8-6.9 0-.1 0-.3-.1-.4h-.1c.5 2.2.7 4.6.8 7zM18.2 10.2c-.2-1.1-.5-2.1-.8-3.1.2.7.3 1.3.5 2-.9-.1-1.7-.2-2.5-.3-1.6-.2-3.2-.5-4.7-.9-.3.3-.7.5-1 .8h.1c2 .6 4.1 1 6.1 1.3.8 0 1.5.1 2.3.2zM26.1 34.7c.2 1.1.5 2.1.8 3.1-.2-.7-.3-1.3-.5-2 .9.1 1.7.2 2.5.3 1.6.2 3.2.5 4.7.9.3-.3.7-.5 1-.8h-.1c-2-.6-4.1-1-6.1-1.3-.7 0-1.5-.1-2.3-.2zM32.1 21.3zM28.9 21.7h0z"/><path opacity=".5" fill="#FFF" d="M43.3 18.3l1-.4-.3-1.1c-1-4.1-3.1-7.7-5.9-10.6-2.8-2.9-6.4-5-10.5-6l-1-.2-.4 1c-.9 2.6-1.7 5.4-2.3 8.1h-3.5C19.8 6.3 19 3.6 18.1 1l-.4-1-1.1.3c-4 1-7.6 3.1-10.5 6C3.3 9.2 1.2 12.8.2 16.9L0 18l1 .4c2.6 1 5.3 1.7 8 2.3v3.6c-2.7.6-5.4 1.4-8 2.3L0 27l.3 1c1 4.1 3.1 7.7 5.9 10.6 2.8 2.9 6.4 5 10.5 6l1.1.3.4-1c.9-2.6 1.7-5.4 2.3-8.1H24c.6 2.8 1.4 5.5 2.3 8.1l.4 1 1.1-.3c4-1 7.6-3.1 10.5-6 2.8-2.9 4.9-6.5 5.9-10.6l.3-1.1-1-.4c-2.6-1-5.3-1.7-8-2.3v-1.8-1.8c2.5-.5 5.2-1.3 7.8-2.3zm-9 5.8c2.5.5 5 1.3 7.4 2.1l1 .3-.2 1c-.9 3.7-2.9 7.1-5.5 9.7-2.6 2.6-6 4.6-9.7 5.5l-1 .2-.3-1c-.9-2.4-1.6-4.9-2.1-7.4h-3.2c-.5 2.5-1.3 5-2.1 7.4l-.3 1-1-.2c-3.7-.9-7.1-2.9-9.7-5.5-2.6-2.6-4.6-6-5.5-9.7l-.2-1 1-.3c2.4-.9 4.9-1.6 7.4-2.1v-1.6-1.6c-2.5-.5-5-1.3-7.4-2.1l-1-.3.2-1C3 13.8 5 10.4 7.6 7.8s6-4.6 9.7-5.5l1-.2.3 1c.9 2.4 1.6 4.9 2.1 7.4h3.2c.5-2.5 1.3-5 2.1-7.4l.3-1 1 .2c3.7.8 7 2.7 9.7 5.4 2.6 2.6 4.6 6 5.5 9.7l.2 1-1 .3c-2.4.9-4.9 1.6-7.4 2.1v3.3z"/><path opacity=".5" fill="#FFF" d="M34.5 18.5c1.9-.4 3.7-1 5.6-1.6v-.1c-1.5.5-3 .9-4.5 1.3.1-.9.2-1.7.3-2.6.2-1.6.5-3.3.9-4.9-.2-.3-.4-.5-.6-.8v.1c-.6 2-1 4.1-1.3 6.1-.3.9-.4 1.7-.4 2.5zM32.2 19v-.2c-2.3.4-4.7.7-7.1.8.1-2.4.4-4.8.8-7.1h-.1c0 .1 0 .3-.1.4-.4 2.3-.7 4.6-.8 6.9 2.4-.1 4.7-.4 6.9-.8h.4zM34.7 8.6c-.3-.3-.6-.5-1-.8-1.6.4-3.1.7-4.7.9-.9.2-1.7.3-2.6.3.1-.7.3-1.3.5-2-.3 1-.6 2.1-.8 3.1.8-.1 1.6-.2 2.3-.3 2.2-.2 4.2-.6 6.3-1.2zM36 34.9c.2-.2.4-.4.6-.7-.4-1.6-.7-3.2-.9-4.9-.1-.8-.2-1.7-.3-2.6 1.5.4 3.1.8 4.5 1.3v-.1c-1.8-.6-3.7-1.1-5.6-1.6.1.8.2 1.6.3 2.3.4 2.2.8 4.3 1.4 6.3zM12.2 25.9v.2c2.3-.4 4.7-.7 7.1-.8-.1 2.4-.4 4.8-.8 7.1h.1c0-.1 0-.3.1-.4.4-2.3.7-4.6.8-6.9-2.4.1-4.7.4-6.9.8h-.4zM25 22.5v-.4h-.2v.8h.2v-.4zM22.6 25.3v-.2h-.8v.2h.8zM32.1 23.6zM21.8 19.6v.2h.8v-.2h-.8zM23.4 12.6c-.1 0-.1 0 0 0-.2 1.2-.4 2.4-.5 3.6.1-1.2.3-2.4.5-3.6zM25 25.3c2.4.1 4.8.4 7.1.8v-.2c-.1 0-.3-.1-.4-.1-2.3-.4-4.6-.7-6.9-.8.1 2.4.4 4.7.8 6.9 0 .1 0 .3.1.4h.1c-.4-2.2-.7-4.5-.8-7zM19.4 22.1v.8h.2v-.4-.4h-.2zM21 12.6c.2 1.2.4 2.4.5 3.6-.1-1.2-.3-2.4-.5-3.6zM15.3 21.7h0zM12.3 23.6c.6-.1 1.2-.2 1.7-.3-.5.1-1.1.2-1.7.3zM12.3 21.3zM15.4 23.2zM23.4 32.3c-.2-1.2-.4-2.4-.5-3.6.1 1.2.2 2.4.5 3.6-.1 0-.1 0 0 0zM21 32.3c.2-1.2.4-2.4.5-3.6-.1 1.2-.3 2.4-.5 3.6z"/><path fill="#FFF" d="M60.3 23.6H64v2c-.5.5-1 .9-1.7 1.2-.6.3-1.3.4-2.1.4-1.4 0-2.5-.5-3.5-1.4-1-1-1.4-2.2-1.4-3.5 0-1.4.5-2.5 1.4-3.5 1-1 2.2-1.5 3.5-1.5 1.4 0 2.5.5 3.5 1.5l1.8-1.8c-.7-.7-1.5-1.2-2.4-1.6-.9-.4-1.9-.6-2.9-.6-2.1 0-3.8.7-5.3 2.2-1.5 1.5-2.2 3.2-2.2 5.3 0 2.1.7 3.8 2.2 5.3 1.4 1.5 3.2 2.2 5.3 2.2.6 0 1.3-.1 1.9-.2.6-.2 1.2-.4 1.7-.7.5-.3 1-.6 1.5-1.1.5-.4.8-.9 1.2-1.4v-5.3h-6.2v2.5zM73.3 14.9h-2.5v14.9h9.9v-2.5h-7.4zM92.4 29.8c2.1 0 3.8-.7 5.3-2.2 1.5-1.4 2.2-3.2 2.2-5.3 0-2-.7-3.8-2.2-5.3-1.4-1.5-3.2-2.2-5.3-2.2-2.1 0-3.8.7-5.3 2.2-1.5 1.5-2.2 3.2-2.2 5.3 0 2.1.7 3.8 2.2 5.3 1.5 1.5 3.3 2.2 5.3 2.2zm-3.5-10.9c1-1 2.2-1.5 3.5-1.5 1.4 0 2.5.5 3.5 1.5s1.5 2.1 1.5 3.5-.5 2.5-1.5 3.5-2.1 1.4-3.5 1.4-2.5-.5-3.5-1.4c-1-1-1.4-2.2-1.4-3.5 0-1.4.5-2.5 1.4-3.5zM115.3 28.6c.4-.4.7-.9.9-1.4.2-.5.3-1.1.3-1.7 0-1.2-.4-2.3-1.3-3.1.9-.9 1.3-1.9 1.3-3.1 0-.6-.1-1.1-.3-1.7-.2-.5-.5-1-.9-1.4-.4-.4-.9-.7-1.4-.9-.5-.2-1.1-.3-1.7-.3h-8.1v14.9h8.1c.6 0 1.1-.1 1.7-.3.6-.3 1.1-.6 1.4-1zm-8.6-11.2h5.6c.2 0 .5 0 .7.1.2.1.4.2.6.4.2.2.3.4.4.6.1.2.1.5.1.7 0 .3 0 .5-.1.7-.1.2-.2.4-.4.6s-.4.3-.6.4c-.2.1-.5.2-.7.2h-5.6v-3.7zm6.3 9.8c-.2.1-.5.1-.7.1h-5.6v-3.7h5.6c.3 0 .5.1.7.1.2.1.4.2.6.4.2.2.3.4.4.6.1.2.1.5.1.7 0 .2 0 .5-.1.7-.1.2-.2.4-.4.6-.2.3-.4.4-.6.5zM133 29.8h2.8l-7.4-14.9-7.5 14.9h2.8l1.3-2.5h6.8l1.2 2.5zm-6.8-4.9l2.2-4.4 2.2 4.4h-4.4zM150 27.3h-7.4V14.9h-2.5v14.9h9.9zM85.8 32.9h1.9v5.4h.8v-5.4h1.8v-.7h-4.5zM93.6 35.4c.6-.2 1.2-.8 1.2-1.6 0-.5-.2-.9-.5-1.2-.4-.3-.9-.5-1.8-.5-.5 0-1.1 0-1.5.1v6h.8v-2.6h.7c.7 0 1 .3 1.2 1.2.2.8.3 1.3.4 1.5h.9c-.1-.2-.3-.8-.5-1.7-.1-.6-.4-1-.9-1.2zm-1-.3h-.8v-2.2c.1 0 .4-.1.8-.1.8 0 1.4.4 1.4 1.1 0 .7-.6 1.2-1.4 1.2zM97.5 32.2l-2.1 6.1h.8l.6-1.9H99l.7 1.9h.8l-2.1-6.1h-.9zm-.5 3.6l.6-1.8c.1-.4.2-.7.3-1.1.1.4.2.7.3 1.1l.6 1.8H97zM103.1 32.1c-.6 0-1.2.1-1.7.1v6c.4 0 .9.1 1.4.1 1.2 0 2.1-.3 2.7-.9.6-.6.9-1.4.9-2.4s-.3-1.7-.9-2.2c-.5-.4-1.3-.7-2.4-.7zm-.1 5.6h-.8v-4.8c.2 0 .5-.1.9-.1 1.7 0 2.5.9 2.5 2.4 0 1.6-.9 2.5-2.6 2.5zM108.2 35.4h2.4v-.6h-2.4v-1.9h2.5v-.7h-3.3v6.1h3.5v-.7h-2.7zM116.7 32.8c.5 0 .9.1 1.2.3l.2-.6c-.2-.1-.7-.3-1.5-.3-1.9 0-3.2 1.3-3.2 3.2 0 2 1.3 3.1 3 3.1.7 0 1.3-.1 1.6-.3l-.2-.6c-.3.2-.8.3-1.3.3-1.5 0-2.3-1-2.3-2.5.1-1.7 1-2.6 2.5-2.6zM121.5 32.1c-1.6 0-2.8 1.3-2.8 3.2 0 1.8 1.1 3.1 2.7 3.1s2.8-1.1 2.8-3.2c.1-1.8-1-3.1-2.7-3.1zm0 5.7c-1.2 0-1.9-1.2-1.9-2.5s.7-2.5 2-2.5 1.9 1.3 1.9 2.5c0 1.3-.7 2.5-2 2.5zM129.2 34.8c0 1 0 1.7.1 2.5-.3-.6-.6-1.3-1.1-2l-2-3.1h-.9v6.1h.7v-2.6c0-1 0-1.7-.1-2.5.3.7.7 1.4 1.1 2l1.9 3.1h.8v-6.1h-.7v2.6zM135.1 34.8c0 1 0 1.7.1 2.5-.3-.6-.6-1.3-1.1-2l-2-3.1h-.9v6.1h.7v-2.6c0-1 0-1.7-.1-2.5.3.7.7 1.4 1.1 2l1.9 3.1h.8v-6.1h-.7v2.6zM138 35.4h2.4v-.6H138v-1.9h2.5v-.7h-3.3v6.1h3.5v-.7H138zM144.5 32.8c.5 0 .9.1 1.2.3l.2-.6c-.2-.1-.7-.3-1.5-.3-1.9 0-3.2 1.3-3.2 3.2 0 2 1.3 3.1 3 3.1.7 0 1.3-.1 1.6-.3l-.2-.6c-.3.2-.8.3-1.3.3-1.5 0-2.3-1-2.3-2.5.2-1.7 1.1-2.6 2.5-2.6zM146.2 32.2v.7h1.9v5.4h.8v-5.4h1.9v-.7z"/><g fill="#FFF"><path d="M25.9 42.1c-.9-2.4-1.6-4.9-2.1-7.5h-3.2c-.5 2.5-1.2 5-2.1 7.4l-.4 1-1-.3c-3.7-.9-7-2.8-9.7-5.5-2.7-2.7-4.6-6.1-5.5-9.7l-.3-1 1-.4C5 25.3 7.5 24.5 10 24v-1.5-1.6c-2.5-.5-5-1.2-7.4-2.1l-1-.4.3-1c.9-3.7 2.8-7 5.5-9.7 2.6-2.8 6-4.7 9.7-5.6l1-.3.4 1c.9 2.4 1.6 4.9 2.1 7.4h3.2c.5-2.5 1.2-5 2.1-7.4l.4-1 1 .3c3.7.9 7 2.8 9.7 5.5 2.7 2.7 4.6 6.1 5.5 9.7l.3 1-1 .4c-2.4.9-4.9 1.6-7.5 2.2V24c2.5.5 5 1.2 7.4 2.1l1 .4-.3 1c-.9 3.7-2.8 7-5.5 9.7-2.7 2.7-6.1 4.6-9.7 5.5l-1 .3-.3-.9zm.3-7.3c.2.9.5 1.9.8 3 .2.8.5 1.6.7 2.4 2.1-.7 4.1-1.7 5.9-3.2l.2-.2c.2-.2.4-.3.6-.5-2-.6-4-1-6.1-1.3-.6 0-1.3-.1-2.1-.2zM9.8 36.3c.2.2.4.3.6.5l.2.2c1.8 1.4 3.8 2.5 5.9 3.2.3-.8.5-1.6.7-2.4.3-1.1.6-2.1.8-3-.8.1-1.5.2-2.2.3-2 .2-4 .7-6 1.2zm24.7-9.8c.1.8.2 1.5.3 2.2.3 2 .7 4.1 1.3 6.1.1-.1.2-.3.3-.4l.2-.3c1.5-1.9 2.6-3.9 3.3-6.1-1.7-.6-3.5-1.1-5.4-1.5zM4.4 28c.7 2.2 1.8 4.3 3.3 6.1l.3.3c.1.1.2.3.3.4.6-2 1-4 1.3-6.1.1-.7.2-1.5.3-2.2-1.9.4-3.7.9-5.5 1.5zm15.1-2.8c-2.3.1-4.6.4-6.8.8h-.5v.1c-.1 1.1-.2 2-.3 2.9-.2 1.5-.5 3-.8 4.5 1.5-.3 3-.6 4.5-.8l3-.3.1-.4c.4-2.2.6-4.5.8-6.8zm5.4 0c.1 2.3.4 4.6.8 6.8l.1.4c1.1 0 2.1.1 3.1.3 1.5.2 3 .5 4.5.8-.3-1.5-.6-3-.8-4.5-.1-.9-.2-1.9-.3-2.9V26l-.4-.1c-2.4-.4-4.7-.6-7-.7zm-2.7 7h1.1c-.2-1.1-.4-2.3-.5-3.5-.1-1.1-.2-2.3-.3-3.4v-.2h-.6v.2c-.1 1.2-.1 2.3-.3 3.4-.1 1.2-.3 2.4-.5 3.5h1.1zm-9.8-10.8v2.2c.5-.1 1.1-.2 1.6-.3.4-.1.8-.1 1.2-.2h.1c1.3-.2 2.7-.3 4-.3h.1v-.6c-1.4-.1-2.7-.2-4.1-.3h-.1c-.5-.1-.9-.1-1.3-.2-.4-.2-1-.2-1.5-.3zm12.5 1.4c1.9.1 3.7.3 5.5.5.5.1 1.1.2 1.6.3v-1.1-1.1c-.5.1-1.1.2-1.6.3-.4.1-.7.1-1.1.1H29c-1.3.2-2.7.3-4 .3h-.1v.7zm-2.4-3v-.2c.1-1.2.1-2.3.3-3.4.1-1.2.3-2.4.5-3.5h-2.2c.2 1.2.4 2.3.5 3.5.1 1.1.2 2.3.3 3.4v.2h.6zm10.8-8.4c-1.5.3-3 .6-4.5.8l-3 .3-.1.4c-.4 2.2-.6 4.5-.8 6.8 2.3-.1 4.6-.4 6.8-.8l.4-.1H32c.1-1.1.2-2.1.3-3 .3-1.5.6-3 1-4.4zM12.6 19c2.2.4 4.5.6 6.8.8-.1-2.3-.4-4.6-.8-6.8l-.1-.4c-1.1 0-2.1-.1-3.1-.3-1.5-.2-3-.5-4.5-.8.3 1.5.6 3 .8 4.5.1.9.2 1.9.3 2.9v.1h.6zm-4.3-8.9c-.1.1-.2.3-.3.4l-.2.3c-1.5 1.9-2.6 3.9-3.3 6.1 1.7.6 3.5 1.1 5.3 1.5-.1-.8-.2-1.5-.3-2.2-.2-2.1-.6-4.1-1.2-6.1zm27.8 0c-.6 2-1 4-1.3 6.1-.1.7-.2 1.5-.3 2.2 1.8-.4 3.6-.9 5.4-1.5-.7-2.2-1.8-4.3-3.3-6.1l-.2-.3c-.1-.1-.2-.3-.3-.4zm-8.3-5.4c-.3.8-.5 1.6-.7 2.4-.3 1.1-.6 2.1-.8 3 .8-.1 1.5-.2 2.2-.3 2-.3 4.1-.7 6.1-1.3-.2-.2-.4-.3-.6-.5l-.2-.2c-1.9-1.3-3.9-2.4-6-3.1zm-18 3.9c2 .6 4 1 6.1 1.3.7.1 1.5.2 2.2.3-.2-.9-.5-1.9-.8-3-.2-.8-.5-1.6-.7-2.4-2.1.7-4.1 1.7-5.9 3.2l-.2.2c-.3 0-.5.2-.7.4z"/><path d="M18.1 1.9l.3 1c.9 2.4 1.6 4.9 2.1 7.4h3.2c.5-2.5 1.3-5 2.1-7.4l.3-1 1 .2C31 3.1 34.3 5 37 7.7c2.6 2.6 4.6 6 5.5 9.7l.2 1-1 .3c-2.4.9-4.9 1.6-7.4 2.1V24c2.5.5 5 1.3 7.4 2.1l1 .3-.2 1c-.9 3.7-2.9 7.1-5.5 9.7-2.6 2.6-6 4.6-9.7 5.5l-1 .2-.3-1c-.9-2.4-1.6-4.9-2.1-7.4h-3.2c-.5 2.5-1.3 5-2.1 7.4l-.3 1-1-.2c-3.7-.9-7.1-2.9-9.7-5.5-2.6-2.6-4.6-6-5.5-9.7l-.2-1 1-.3c2.4-.9 4.9-1.6 7.4-2.1v-1.6-1.6c-2.5-.5-5-1.3-7.4-2.1l-1-.3.2-1C3 13.7 5 10.3 7.6 7.7s6-4.6 9.7-5.5l.8-.3m.1 8.3c-.2-1.1-.5-2.1-.8-3.1-.2-.8-.5-1.6-.8-2.4-2.2.7-4.2 1.8-6 3.2-.3.3-.7.5-1 .8h.1c2 .6 4.1 1 6.1 1.3.9 0 1.6.1 2.4.2m7.9 0c.8-.1 1.6-.2 2.3-.3 2.1-.3 4.1-.7 6.1-1.3h.1c-.3-.3-.6-.5-1-.8-1.8-1.4-3.8-2.5-6-3.2-.3.8-.5 1.6-.8 2.4-.2 1.1-.4 2.1-.7 3.2m8.4 8.3c1.9-.4 3.7-1 5.6-1.6v-.1c-.7-2.3-1.9-4.4-3.3-6.2-.2-.3-.4-.5-.6-.8v.1c-.6 2-1 4.1-1.3 6.1-.3.9-.4 1.7-.4 2.5m-24.6 0c-.1-.8-.2-1.6-.3-2.3-.2-2.1-.7-4.2-1.2-6.2v-.1c-.2.2-.4.5-.6.8-1.5 1.8-2.6 3.9-3.3 6.2v.1c1.7.5 3.5 1.1 5.4 1.5m14.9 1.3c2.4-.1 4.7-.4 6.9-.8.1 0 .3 0 .4-.1v-.2c.1-1 .2-2 .3-2.9.2-1.5.5-3.1.9-4.6-1.5.4-3 .6-4.6.9l-3 .3h-.1c0 .1 0 .3-.1.4-.3 2.3-.6 4.7-.7 7m-5.3 0c-.1-2.4-.4-4.7-.8-6.9 0-.1 0-.3-.1-.4h-.1l-3-.3c-1.5-.2-3.1-.5-4.6-.9.4 1.5.6 3 .9 4.6.1 1 .2 1.9.3 2.9v.2c.1 0 .3 0 .4.1 2.4.3 4.7.6 7 .7m2.7-7.2h-1.1c.2 1.2.4 2.4.5 3.6.1 1.1.2 2.3.3 3.4v.2h.8v-.2c.1-1.2.1-2.3.3-3.4.1-1.2.3-2.4.5-3.6h-1.3m9.9 11v-1.2-1.2c-.6.1-1.2.2-1.7.3-.4.1-.8.1-1.3.2H29c-1.3.2-2.6.3-4 .3h-.2v.8h.2c1.8.1 3.6.3 5.4.5.5.1 1.1.2 1.7.3m-19.8 0c.6-.1 1.2-.2 1.7-.3.4-.1.9-.1 1.3-.2h.1c1.3-.2 2.6-.3 4-.3h.2v-.4-.4h-.2c-1.3-.1-2.7-.2-4-.3h-.1c-.4 0-.8-.1-1.2-.2-.6-.1-1.2-.2-1.7-.3v1.2c-.1.4-.1.8-.1 1.2m8.7 8.7h2.3c-.2-1.2-.4-2.4-.5-3.6-.1-1.1-.2-2.3-.3-3.4v-.2h-.8v.2c-.1 1.2-.1 2.3-.3 3.4 0 1.2-.2 2.4-.4 3.6m12.4 1.3c-.4-1.5-.6-3-.9-4.6-.1-1-.2-1.9-.3-2.9v-.2c-.1 0-.3-.1-.4-.1-2.3-.4-4.6-.7-6.9-.8.1 2.4.4 4.7.8 6.9 0 .1 0 .3.1.4h.1l3 .3c1.4.4 3 .7 4.5 1m-22.4 0c1.5-.4 3-.6 4.6-.9l3-.3h.1c0-.1 0-.3.1-.4.4-2.3.7-4.6.8-6.9-2.4.1-4.7.4-6.9.8-.1 0-.3 0-.4.1v.2c-.1 1-.2 2-.3 2.9-.3 1.5-.6 3-1 4.5M36 35c.2-.2.4-.5.6-.8 1.5-1.8 2.6-3.9 3.3-6.2v-.1c-1.8-.6-3.7-1.1-5.6-1.6.1.8.2 1.6.3 2.3.4 2.2.8 4.3 1.4 6.4M8.3 35c.6-2.1 1-4.1 1.3-6.2.1-.8.2-1.6.3-2.3-1.9.4-3.7 1-5.6 1.6v.1c.7 2.3 1.9 4.4 3.3 6.2.3.1.5.3.7.6m19.4 5.3c2.2-.7 4.2-1.8 6-3.2.3-.3.7-.5 1-.8h-.1c-2-.6-4.1-1-6.1-1.3-.8-.1-1.6-.2-2.3-.3.2 1.1.5 2.1.8 3.1.2.9.4 1.7.7 2.5m-11 0c.3-.8.5-1.6.8-2.4.3-1 .6-2.1.8-3.1-.8.1-1.6.2-2.3.3-2.1.3-4.1.7-6.1 1.3h-.1c.3.3.6.5 1 .8 1.6 1.3 3.6 2.4 5.9 3.1m1.5-38.6h-.1L17 2c-3.6.9-7 2.9-9.7 5.6-2.7 2.7-4.6 6.1-5.5 9.8l-.2 1v.1h.1l1 .3c2.4.9 4.9 1.6 7.3 2.1v3c-2.5.5-5 1.3-7.3 2.1l-1 .3h-.1v.1l.2 1c.9 3.7 2.8 7.1 5.5 9.8 2.7 2.7 6.1 4.6 9.8 5.5l1 .2h.1v-.1l.3-1c.9-2.4 1.6-4.9 2.1-7.3h3c.5 2.5 1.3 5 2.1 7.3l.3 1v.1h.1l1-.2c3.7-.9 7.1-2.8 9.8-5.5 2.7-2.7 4.6-6.1 5.5-9.8l.2-1v-.1h-.1l-1-.3c-2.4-.9-4.9-1.6-7.3-2.1v-1.5-1.5c2.5-.5 5-1.3 7.3-2.1l1-.3h.1v-.1l-.2-1c-.9-3.7-2.8-7.1-5.5-9.8C34.4 4.9 31 2.9 27.3 2l-1-.2h-.1v.1l-.3 1c-.9 2.4-1.6 4.9-2.1 7.3h-3c-.5-2.5-1.3-5-2.1-7.3l-.3-1-.2-.2zM10 8.5c.2-.1.3-.3.5-.4l.2-.2c1.8-1.4 3.7-2.5 5.8-3.1.2.7.5 1.4.7 2.3.3 1 .6 2 .8 2.9-.7-.1-1.4-.1-2.1-.2-2-.3-4-.7-5.9-1.3zM26.3 10c.2-.9.5-1.9.8-2.9.3-.9.5-1.6.7-2.3 2.1.7 4 1.7 5.8 3.1l.2.2c.2.1.3.3.5.4-1.9.5-3.9 1-5.9 1.2-.6.2-1.4.2-2.1.3zm8.3 8.3c.1-.7.1-1.4.2-2.1.3-2 .7-4 1.2-5.9.1.1.1.2.2.3.1.1.1.2.2.3 1.5 1.8 2.6 3.9 3.3 6-1.6.5-3.3 1-5.1 1.4zM4.5 16.8c.7-2.2 1.8-4.2 3.3-6 .1-.1.2-.2.2-.3.1-.1.1-.2.2-.3.5 1.9 1 3.9 1.2 5.9.1.7.2 1.4.2 2.1-1.6-.3-3.4-.8-5.1-1.4zm21.3-4.2c1-.1 2.1-.2 3-.3 1.5-.2 2.9-.5 4.3-.8-.3 1.4-.6 2.9-.8 4.3-.1.9-.2 1.9-.3 2.9v.1l-.3.1c-2.2.4-4.5.6-6.7.8.1-2.3.4-4.5.8-6.7v-.4zm-13.5 6.2c-.1-1.1-.2-2.1-.3-3-.2-1.5-.5-2.9-.8-4.3 1.4.3 2.9.6 4.3.8l3 .3.1.3c.4 2.2.6 4.5.8 6.7-2.3-.1-4.5-.4-6.7-.8h-.4zm9.6.9c-.1-1.3-.2-2.4-.3-3.6-.1-1.2-.3-2.3-.5-3.4h2c-.2 1.1-.4 2.3-.5 3.4-.1 1.1-.2 2.3-.3 3.4v.1h-.2l-.2.1zm-9.4 3.7v-1-1c.5.1 1 .2 1.6.2.4.1.8.1 1.2.1H15.6c1.3.2 2.7.3 4 .3h.1v.4h-.1c-1.3.1-2.6.2-4 .3h-.1c-.4 0-.8.1-1.2.2-.8.4-1.3.5-1.8.5zm12.4-1.2c1.4-.1 2.7-.2 4-.3h.2c.4 0 .7-.1 1.1-.1.5-.1 1.1-.2 1.6-.2v2c-.5-.1-1-.2-1.6-.2-1.8-.3-3.6-.4-5.4-.5h-.1v-.2l.2-.5zm-3 3h.4v.1c.1 1.2.1 2.3.3 3.4.1 1.1.3 2.3.5 3.4h-2c.2-1.1.4-2.3.5-3.4.2-1.1.3-2.2.3-3.5zm3.9 7.1c0-.1 0-.2-.1-.3-.4-2.2-.6-4.5-.8-6.7 2.3.1 4.5.4 6.7.8.1 0 .2 0 .3.1v.1c.1 1.1.2 2 .3 2.9.2 1.5.5 2.9.8 4.3-1.4-.3-2.9-.6-4.3-.8-.9-.2-1.9-.3-2.9-.4zm-13.5-6.2l.3-.1c2.2-.4 4.5-.6 6.7-.8-.1 2.3-.4 4.5-.8 6.7l-.1.3-3 .3c-1.5.2-2.9.5-4.3.8.3-1.4.6-2.9.8-4.3.2-.8.3-1.8.4-2.9zm-7.8 2c1.7-.6 3.5-1.1 5.2-1.5-.1.7-.1 1.4-.2 2.1-.3 2-.7 4-1.2 5.9-.1-.1-.1-.2-.2-.3-.1-.1-.1-.2-.2-.3-1.6-1.7-2.7-3.8-3.4-5.9zm31.6 6.5c-.5-1.9-1-3.9-1.2-5.9-.1-.7-.2-1.4-.2-2.1 1.8.4 3.5.9 5.2 1.5-.7 2.2-1.8 4.2-3.3 6-.1.1-.1.2-.2.3-.2.1-.2.2-.3.2zM10 36.4c1.9-.5 3.9-1 5.9-1.2.7-.1 1.4-.2 2.1-.2-.2.9-.5 1.9-.8 2.9-.3.9-.5 1.6-.7 2.3-2.1-.7-4-1.7-5.8-3.1l-.2-.2c-.2-.2-.3-.4-.5-.5zm17.8 3.7c-.2-.7-.5-1.4-.7-2.3-.3-1-.6-2-.8-2.9.7.1 1.4.1 2.1.2 2 .3 4 .7 5.9 1.2-.2.1-.3.3-.5.4l-.2.3c-1.8 1.4-3.7 2.4-5.8 3.1z"/></g></svg>