<svg xmlns="http://www.w3.org/2000/svg" width="16" height="16" viewBox="0 0 16 16"><path fill="#4E4E4E" d="M0 8V1.9C0 1 .6.2 1.5 0H14.1c1 0 1.7.7 1.8 1.7v12.6c0 .9-.7 1.7-1.6 1.8H1.7c-.9 0-1.7-.7-1.8-1.6v-.3C0 12.1 0 10 0 8zm12.8-1.2c.3 1 .2 2-.2 3s-1 1.7-1.8 2.3c-1.5 1.1-3.6 1.1-5.2.2-.8-.5-1.5-1.1-1.9-1.9-.6-1.2-.8-2.4-.5-3.6H1.8v6.8c0 .4.3.6.6.6h11c.4 0 .7-.3.7-.7V6.9v-.1h-1.3zM8 4.9C6.3 4.9 4.9 6.3 4.9 8c0 1.7 1.4 3.1 3.1 3.1 1.7 0 3.1-1.4 3.1-3.1 0-1.7-1.4-3.1-3.1-3.1zm4.6 0h.9c.4 0 .6-.3.6-.6V2.5c0-.4-.3-.6-.6-.6h-1.8c-.4 0-.6.3-.6.6v1.8c0 .4.3.6.6.6h.9z"/></svg>