<svg xmlns="http://www.w3.org/2000/svg" width="39.2" height="37.1" viewBox="0 0 39.2 37.1"><path fill="currentColor" d="M39.1 1.9C38.7.7 37.4.3 36.4.1l-.3-.1h-1c-.1 0-.2 0-.3.1-.2 0-.3.1-.4.1-3.2.2-5.9 1.5-8 4.1l-1 1.2-.2.2c-1.3-.8-2.8-1.3-4.3-1.7l-.9-.3-.3.8c-.7 2-1.3 4-1.7 6.1h-2.6c-.4-2.1-1-4.1-1.7-6.1l-.3-.8-.8.2c-3 .8-5.7 2.3-7.9 4.5C2.6 10.5 1 13.3.2 16.3l-.2.8.8.3c2 .7 4 1.3 6.1 1.7v2.6c-2.1.4-4.1 1-6.1 1.7l-.8.4.2.8c.8 3 2.3 5.7 4.5 7.9 2.1 2.1 4.9 3.7 7.9 4.5l.8.2.3-.8c.7-1.8 1.2-3.7 1.7-5.7h1.7c.4 0 .7-.1 1.1-.2.4 2 1 4 1.7 6l.3.8.8-.2c3-.8 5.7-2.3 7.9-4.5s3.7-4.8 4.5-7.9l.2-.8-.8-.3c-2-.7-4-1.3-6.1-1.7v-1.3-.8c.1-.2.3-.4.4-.6 1.9-.4 3.8-1 5.6-1.6l.8-.3-.2-.8c-.3-1.3-.8-2.5-1.4-3.7.7-.8 1.3-1.5 1.9-2.3C34.8 9 36 7.6 38 5.1c.6-.9 1.5-2 1.1-3.2zm-17.9 4c1 .3 1.9.7 2.7 1.2-1.4 1.7-2 2.4-2.4 3.2-.5.1-1.1.1-1.6.2.4-1.6.8-3.1 1.3-4.6zm-1.7 6.4c.3 0 .6-.1.8-.1-.3.5-.6 1.1-1.1 1.8.1-.5.1-.9.2-1.4.1-.1.1-.2.1-.3zm-1.8.1c-.1.8-.3 1.7-.4 2.5-.2-.6-.4-1.1-.7-1.7-.1-.3-.3-.6-.4-.8h1.5zM8 13c-.1-.6-.2-1.1-.4-1.7.7.2 1.3.3 2 .4-.6.4-1.2.8-1.6 1.3zm1.1 12.5l.4 1.3c.3.8.6 1.5 1.1 2-1 .2-2 .3-3 .6.3-1.2.5-2.5.7-3.7.1-.7.2-1.3.2-2 .2.7.4 1.3.6 1.8zm3.1-19.6c.5 1.5.9 3 1.3 4.5-.6-.1-1.3-.1-1.9-.2-1.7-.2-3.4-.6-5-1h-.1c1.6-1.5 3.6-2.6 5.7-3.3zm-6.8 4.3c.5 1.7.8 3.3 1.1 5.1v.1c-.1.6-.2 1.2 0 1.7-1.5-.3-2.9-.7-4.3-1.2.7-2.1 1.8-4 3.2-5.7zm0 20.3C4 29 2.9 27 2.2 24.9c1.5-.5 3-.9 4.5-1.3-.1.6-.1 1.3-.2 1.9-.2 1.7-.6 3.4-1.1 5zm6.8 4.4c-2.1-.7-4.1-1.8-5.7-3.2 1.6-.5 3.3-.8 5-1.1.4-.1.9-.1 1.3-.1.2.1.4.1.5.1-.2 1.5-.6 2.9-1.1 4.3zm12.3-11.7c.1 0 .2 0 .3.1.1.9.2 1.7.3 2.5.2 1.3.4 2.5.7 3.7-1.2-.3-2.5-.5-3.7-.7-.5-.1-1-.1-1.4-.2.2-.2.3-.4.5-.6 1.6-2.4 2.5-3.8 3.2-4.9-.1.1 0 .1.1.1zm6.7 1.7c-.7 2.1-1.8 4.1-3.2 5.7-.5-1.6-.8-3.3-1.1-5-.1-.6-.2-1.3-.2-1.9 1.5.3 3 .7 4.5 1.2zm-4.4 6.8c-1.6 1.5-3.5 2.6-5.6 3.3-.5-1.5-.9-3-1.3-4.5.6.1 1.3.1 1.9.2 1.7.2 3.4.5 5 1zm4.4-15.8c-.8.3-1.7.5-2.6.8 0-.1.1-.1.1-.2.7-.9 1.3-1.7 1.8-2.4.3.6.5 1.2.7 1.8zm5.5-11.8c-4.3 5.6-5.1 5.8-9.2 11.5-4.6 6.3-3.3 5.1-7.7 11.5-.7 1.1-1.6 1.7-2.9 1.9-.6 0-1.1 0-1.7.1H13.9c-.1 0-.2 0-.2-.1-.1 0-.2-.1-.4-.1-.1 0-.1-.1-.2-.1s-.1-.1-.2-.1c0 0-.1 0-.1-.1-.1 0-.1-.1-.2-.1-.1-.1-.2-.1-.3-.2l-.2-.2c-.1-.1-.2-.2-.2-.3 0-.1-.1-.1-.1-.2-.1-.1-.1-.2-.2-.4 0-.1-.1-.1-.1-.2-.1-.2-.2-.4-.3-.7-1-3.2-2.1-6.4-3-9.6-.2-.6.1-1.6.6-2.1 1-1.2 2.4-1.9 3.9-2.3.2 0 .4-.1.6-.1h.2c.2 0 .4 0 .5.1.1.1.3.1.4.2l.1.1.4.4s0 .1.1.1l.3.6c.5 1.1.8 2.3 1.3 3.5.3.6.7 1.1 1.1 1.7.5-.5 1.1-.9 1.5-1.5 5.5-8.7 2-4.3 8.5-12.2 1.8-2.2 4-3.4 6.8-3.5.3 0 .6-.1 1-.1h.6c1.8.5 1.9.8.6 2.5z"/></svg>
