<svg width="12.2" height="18.4" viewBox="0 0 12.2 18.4"><path fill="currentColor" d="M3.6 11.8v-1c0-.8.2-1.5.5-2 .3-.6.9-1.2 1.7-1.7.7-.4 1.2-.8 1.4-1.1.3-.3.4-.7.4-1.1 0-.3-.2-.6-.5-.8-.2-.3-.6-.4-1.1-.4-1.2 0-2.7.4-4.3 1.3L0 1.7C2 .6 4.1 0 6.3 0c1.8 0 3.2.4 4.3 1.2 1 .8 1.6 1.9 1.6 3.3 0 1-.2 1.8-.7 2.6-.5.7-1.2 1.4-2.2 2-.9.6-1.4 1-1.6 1.2-.2.3-.3.6-.3.9v.6H3.6zm-.5 4.3c0-.7.2-1.3.7-1.7.4-.4 1.1-.6 1.9-.6.8 0 1.4.2 1.9.6.4.4.7 1 .7 1.7s-.3 1.3-.8 1.7c-.5.4-1.1.6-1.8.6-.8 0-1.4-.2-1.9-.6-.5-.4-.7-1-.7-1.7z"/></svg>