<svg xmlns="http://www.w3.org/2000/svg" width="248.2" height="73.9" viewBox="0 0 248.2 73.9"><path opacity=".5" fill="#FFF" d="M61.1 59.5c3.2-3.6 5.6-7.8 7.1-12.6-3.2-1.1-6.5-2.1-9.9-2.8.1 1.4.3 2.8.5 4.2.5 3.8 1.3 7.5 2.3 11.1v.1zm-17.6-.4c.8 3.4 1.7 6.7 2.8 10 4.7-1.5 8.9-3.9 12.4-7.2h-.1c-3.6-1-7.2-1.8-10.9-2.3-1.4-.3-2.8-.4-4.2-.5zm-29.2 2.8c3.5 3.2 7.8 5.7 12.4 7.2 1.1-3.3 2-6.6 2.8-10-1.4.1-2.8.3-4.2.5-3.7.5-7.4 1.3-10.9 2.3h-.1zm.4-17.8c-3.4.8-6.7 1.7-9.9 2.8 1.4 4.7 3.9 9 7.1 12.6v-.1c1-3.6 1.8-7.3 2.3-11.1.2-1.4.4-2.8.5-4.2zm-2.8-29.7C8.7 18 6.2 22.3 4.8 27c3.2 1.1 6.5 2.1 9.9 2.8-.1-1.4-.3-2.8-.5-4.2-.5-3.8-1.3-7.5-2.3-11.1v-.1zm17.6.5c-.8-3.4-1.7-6.7-2.8-10C22 6.3 17.8 8.8 14.3 12h.1c3.6 1 7.2 1.8 10.9 2.3 1.4.3 2.8.4 4.2.6zm28.8 14.9c3.4-.8 6.7-1.7 9.9-2.8-1.4-4.7-3.9-9-7.1-12.6v.1c-1 3.6-1.8 7.3-2.3 11.1-.2 1.4-.3 2.8-.5 4.2zm.5-17.8C55.2 8.8 51 6.3 46.3 4.9c-1.1 3.3-2 6.6-2.8 10 1.4-.1 2.8-.3 4.2-.5 3.7-.5 7.4-1.3 10.9-2.3l.2-.1zM45.6.4c6.6 1.7 12.5 5.2 17.2 9.9 4.7 4.7 8.1 10.7 9.8 17.4l.4 1.8-1.7.6C67 31.7 62.6 33 58.1 34v5.8c4.5 1 8.9 2.3 13.2 3.9l1.7.6-.4 1.8c-1.7 6.7-5.1 12.7-9.8 17.4-4.7 4.7-10.6 8.2-17.2 9.9l-1.7.4-.6-1.7c-1.6-4.3-2.8-8.8-3.8-13.4h-5.8c-1 4.6-2.3 9-3.8 13.4l-.6 1.7-1.7-.4C21 71.7 15 68.2 10.4 63.5 5.7 58.8 2.3 52.8.6 46L0 44.4l1.7-.6c4.3-1.6 8.7-2.9 13.2-3.9V37v-2.9c-4.5-1-8.9-2.3-13.2-3.9L0 29.6l.4-1.8c1.7-6.7 5.1-12.7 9.8-17.4C14.9 5.7 20.8 2.2 27.4.5l1.8-.5.6 1.7c1.6 4.3 2.8 8.8 3.8 13.4 1 0 1.9.1 2.9.1s1.9 0 2.9-.1c1-4.6 2.3-9 3.8-13.4l.6-1.7 1.8.4zM19 34.8V39c4.2-.7 8.6-1.2 13-1.4v-.7-.7c-4.5-.1-8.8-.6-13-1.4zM30.3 19c-1.9-.1-3.7-.3-5.5-.6-2.8-.4-5.5-.9-8.1-1.5.6 2.7 1.2 5.4 1.5 8.2.3 1.9.4 3.7.6 5.6.2 0 .5.1.7.1 4 .7 8.1 1.2 12.3 1.4-.2-4.2-.7-8.4-1.4-12.5 0-.2 0-.5-.1-.7zm8.3.2h-4.2c.7 4.3 1.2 8.7 1.4 13.1h1.4c.2-4.4.7-8.8 1.4-13.1zm15.7 11.5c.1-1.9.3-3.8.6-5.6.4-2.8.9-5.5 1.5-8.2-2.7.6-5.4 1.2-8.1 1.6-1.8.3-3.7.5-5.6.6 0 .2-.1.5-.1.7-.7 4.1-1.2 8.2-1.4 12.5 4.2-.2 8.3-.7 12.3-1.4.3-.1.5-.2.8-.2zm-.2 8.4V37v-2.1c-4.2.7-8.6 1.2-13 1.4v1.4c4.4.2 8.7.6 13 1.4zM42.7 54.9c1.9.1 3.7.3 5.6.6 2.8.4 5.5.9 8.1 1.6-.6-2.7-1.2-5.4-1.5-8.2-.3-1.9-.5-3.7-.6-5.6-.2 0-.5-.1-.7-.1-4-.7-8.1-1.2-12.3-1.4.2 4.2.7 8.4 1.4 12.5-.1.1 0 .4 0 .6zm-8.3-.2h4.2c-.7-4.3-1.2-8.7-1.4-13.1h-1.4c-.2 4.5-.7 8.8-1.4 13.1zm-17.8 2.4c2.7-.6 5.4-1.2 8.1-1.6 1.8-.3 3.7-.5 5.6-.6 0-.2.1-.5.1-.7.7-4.1 1.2-8.2 1.4-12.5-4.2.2-8.3.7-12.3 1.4-.2 0-.5.1-.7.1-.1 1.9-.3 3.8-.6 5.6-.4 2.8-.9 5.6-1.6 8.3z"/><g fill="#FFF"><path d="M99.2 24.6c1.7 0 3.3.3 4.8 1 1.5.6 2.8 1.5 3.9 2.6l-2.9 2.9c-1.6-1.6-3.5-2.4-5.8-2.4-2.2 0-4.2.8-5.8 2.4-1.6 1.6-2.4 3.5-2.4 5.8 0 2.2.8 4.2 2.4 5.8C95 44.2 97 45 99.2 45c1.2 0 2.4-.2 3.4-.7s2-1.2 2.7-2v-3.4h-6.1v-4.1h10.2v8.8c-.6.8-1.2 1.6-2 2.3-.7.7-1.5 1.3-2.4 1.8-.9.5-1.8.9-2.8 1.1-1 .3-2 .4-3.1.4-3.4 0-6.3-1.2-8.7-3.6-2.4-2.4-3.6-5.3-3.6-8.7 0-3.4 1.2-6.3 3.6-8.7 2.5-2.4 5.4-3.6 8.8-3.6zM116.5 24.6h4.1V45h12.3v4.1h-16.3V24.6zM152.2 24.6c3.4 0 6.3 1.2 8.7 3.6 2.4 2.4 3.6 5.3 3.6 8.7 0 3.4-1.2 6.3-3.6 8.7-2.4 2.4-5.3 3.6-8.7 3.6-3.4 0-6.3-1.2-8.7-3.6-2.4-2.4-3.6-5.3-3.6-8.7 0-3.4 1.2-6.3 3.6-8.7 2.4-2.4 5.3-3.6 8.7-3.6zm0 4.1c-2.2 0-4.2.8-5.8 2.4-1.6 1.6-2.4 3.5-2.4 5.8 0 2.2.8 4.2 2.4 5.8 1.6 1.6 3.6 2.4 5.8 2.4 2.2 0 4.2-.8 5.8-2.4 1.6-1.6 2.4-3.6 2.4-5.8 0-2.2-.8-4.2-2.4-5.8-1.7-1.6-3.6-2.4-5.8-2.4zM189.8 36.9c1.4 1.4 2.2 3.1 2.2 5.1 0 1-.2 1.9-.6 2.8-.4.9-.9 1.6-1.5 2.3s-1.4 1.2-2.3 1.5c-.9.4-1.8.6-2.8.6h-13.3V24.6h13.3c.9 0 1.9.2 2.7.6.9.4 1.7.9 2.3 1.5.6.6 1.2 1.4 1.5 2.3.4.9.6 1.8.6 2.8.1 1.9-.6 3.6-2.1 5.1zm-5-8.2h-9.2v6.1h9.2c.4 0 .8-.1 1.2-.2.4-.2.7-.4 1-.7.3-.3.5-.6.7-1 .2-.4.2-.8.2-1.2 0-.4-.1-.8-.2-1.2-.2-.4-.4-.7-.7-1-.3-.3-.6-.5-1-.7-.4 0-.8-.1-1.2-.1zm0 16.3c.4 0 .8-.1 1.2-.2.4-.2.7-.4 1-.7.3-.3.5-.6.7-1 .2-.4.2-.8.2-1.2 0-.4-.1-.8-.2-1.2-.2-.4-.4-.7-.6-1-.3-.3-.6-.5-1-.7-.4-.2-.8-.2-1.2-.2h-9.2V45h9.1zM217 45h-11.3l-2.1 4.1H199l12.3-24.5 12.3 24.5H219l-2-4.1zm-9.3-4h7.2l-3.6-7.2-3.6 7.2zM230.6 24.6h4.1V45H247v4.1h-16.3V24.6z"/></g><text transform="translate(141.254 63.05)" fill="#FFF" font-family="'Telegrafico'" font-size="14.907">TRADE CONNECT</text><g fill="#FFF"><path d="M42.6 69.2c-1.4-4-2.6-8.1-3.5-12.2h-5.2c-.9 4.1-2.1 8.2-3.5 12.2l-.6 1.7-1.7-.4c-6-1.5-11.6-4.7-16-9.1-4.4-4.4-7.6-10-9.1-16l-.4-1.7 1.6-.7c4-1.4 8.1-2.6 12.2-3.5v-2.6-2.6c-4.1-.9-8.2-2.1-12.2-3.5l-1.7-.6.5-1.7c1.5-6 4.7-11.6 9.1-16 4.4-4.4 10-7.6 16-9.1l1.7-.4.6 1.7c1.4 4 2.6 8.1 3.5 12.2h5.2c.9-4.1 2.1-8.2 3.5-12.2l.6-1.7 1.7.4c6 1.5 11.6 4.7 16 9.1 4.4 4.4 7.6 10 9.1 16l.4 1.7-1.7.6c-4 1.4-8.1 2.6-12.2 3.5v5.2c4.1.9 8.2 2.1 12.2 3.5l1.7.6-.4 1.8c-1.5 6-4.7 11.6-9.1 16-4.4 4.4-10 7.6-16 9.1l-1.7.4-.6-1.7zm.6-11.9c.7 3 1.5 6 2.5 8.8 4.1-1.3 7.9-3.5 11.2-6.3-3.3-.9-6.6-1.6-10-2.1-1.3-.2-2.5-.3-3.7-.4zm-27 2.5c3.2 2.9 7.1 5.1 11.2 6.3 1-2.9 1.8-5.9 2.5-8.8-1.2.1-2.4.2-3.7.4-3.4.5-6.8 1.2-10 2.1zM7.3 46.1c1.3 4.1 3.5 7.9 6.3 11.2.9-3.3 1.6-6.6 2.1-10 .2-1.2.3-2.5.4-3.7-2.9.7-5.9 1.6-8.8 2.5zm49.6-2.5c.1 1.2.2 2.5.4 3.7.5 3.4 1.2 6.7 2.1 10 2.9-3.2 5.1-7.1 6.3-11.2-2.9-.9-5.9-1.8-8.8-2.5zm-36.7-.8c-.1 1.7-.3 3.4-.5 5.1-.3 2.5-.8 4.9-1.4 7.3 2.4-.6 4.9-1 7.3-1.4 1.7-.2 3.4-.4 5.1-.5l.1-.6c.6-3.7 1.1-7.5 1.3-11.3-3.8.2-7.6.6-11.3 1.3l-.6.1zm22.1 10.5c1.7.1 3.4.3 5.1.5 2.5.3 4.9.8 7.3 1.4-.6-2.4-1-4.9-1.4-7.3-.2-1.7-.4-3.4-.5-5.1l-.6-.1c-3.7-.6-7.5-1.1-11.3-1.3.2 3.8.6 7.6 1.3 11.3l.1.6zm-5.8-.2h1.8c-.7-3.9-1.1-7.8-1.3-11.7h-1c-.2 3.9-.6 7.9-1.3 11.7h1.8zM20.4 35.2v3.6c3.9-.7 7.8-1.1 11.7-1.3v-1c-3.9-.2-7.8-.7-11.7-1.3zm20.5 2.3c3.9.2 7.9.6 11.7 1.3V37v-1.8c-3.9.7-7.8 1.1-11.7 1.3v1zM37 32.6c.2-3.9.6-7.9 1.3-11.7h-3.6c.7 3.9 1.1 7.8 1.3 11.7h1zm-16.2-1.4c3.7.6 7.5 1.1 11.3 1.3-.2-3.8-.6-7.6-1.3-11.3l-.1-.6c-1.7-.1-3.4-.3-5-.5-2.5-.3-4.9-.8-7.3-1.4.6 2.4 1 4.9 1.4 7.3.2 1.7.4 3.4.5 5l.5.2zm21.4-10c-.6 3.7-1.1 7.5-1.3 11.3 3.8-.2 7.6-.6 11.3-1.3l.6-.1c.1-1.7.3-3.4.5-5 .3-2.5.8-4.9 1.4-7.3-2.4.6-4.9 1-7.3 1.4-1.7.2-3.4.4-5 .5l-.2.5zM7.3 27.8c2.9 1 5.9 1.8 8.8 2.5-.1-1.2-.2-2.5-.4-3.7-.5-3.4-1.2-6.7-2.1-10-2.8 3.2-5 7.1-6.3 11.2zm52.1-11.2c-.9 3.3-1.6 6.6-2.1 10-.2 1.2-.3 2.4-.4 3.7 3-.7 6-1.5 8.8-2.5-1.3-4.1-3.5-8-6.3-11.2zM45.7 7.8c-1 2.9-1.8 5.9-2.5 8.8 1.2-.1 2.5-.2 3.7-.4 3.4-.5 6.7-1.2 10-2.1-3.3-2.9-7.1-5-11.2-6.3zm-29.5 6.3c3.3.9 6.6 1.6 10 2.1 1.2.2 2.5.3 3.7.4-.7-3-1.5-6-2.5-8.8-4.2 1.3-8 3.4-11.2 6.3z"/><path d="M29.7 3.2l.6 1.6c1.4 4 2.6 8.1 3.5 12.2h5.4c.9-4.2 2.1-8.3 3.5-12.2l.6-1.6 1.6.4c6.1 1.5 11.6 4.7 15.9 9 4.3 4.3 7.5 9.8 9.1 16l.4 1.6-1.6.6c-4 1.4-8.1 2.6-12.3 3.5v5.4c4.2.9 8.3 2.1 12.2 3.5l1.6.6-.4 1.6c-1.5 6.1-4.7 11.6-9 16-4.3 4.3-9.8 7.5-16 9.1l-1.6.4-.6-1.6c-1.4-4-2.6-8.1-3.5-12.2h-5.4c-.9 4.2-2.1 8.3-3.5 12.2l-.6 1.6-1.6-.4c-6.1-1.5-11.6-4.7-16-9-4.3-4.3-7.5-9.8-9.1-16l-.4-1.6 1.6-.6c4-1.4 8.1-2.6 12.2-3.5v-2.7-2.7c-4.2-.9-8.3-2.1-12.2-3.5l-1.6-.6.4-1.6c1.5-6.1 4.7-11.6 9-16 4.3-4.3 9.8-7.5 16-9.1l1.8-.4m.3 13.6c-.7-3.1-1.6-6.2-2.6-9.1-4.3 1.3-8.2 3.6-11.5 6.6h.1c3.3.9 6.7 1.6 10.1 2.1 1.3.1 2.6.2 3.9.4m13 0c1.3-.1 2.6-.3 3.9-.4 3.4-.5 6.8-1.2 10.1-2.1h.1c-3.3-3-7.2-5.2-11.5-6.6-1 2.9-1.9 5.9-2.6 9.1m13.7 13.7c3.1-.7 6.2-1.6 9.1-2.6-1.3-4.3-3.6-8.2-6.6-11.5v.1c-.9 3.3-1.6 6.7-2.1 10.1-.1 1.3-.3 2.6-.4 3.9m-40.4 0c-.1-1.3-.3-2.6-.4-3.9-.5-3.4-1.2-6.8-2.1-10.1v-.1c-3 3.3-5.2 7.2-6.6 11.5 2.9 1 6 1.8 9.1 2.6m38.6-11.9c-2.5.6-5 1.1-7.5 1.4-1.7.2-3.4.4-5.1.5 0 .2-.1.5-.1.7-.7 3.7-1.1 7.5-1.3 11.4 3.9-.2 7.7-.6 11.4-1.3.2 0 .4-.1.7-.1.1-1.7.3-3.4.5-5.1.3-2.6.8-5.1 1.4-7.5m-22.7 14c-.2-3.9-.6-7.7-1.3-11.4 0-.2-.1-.5-.1-.7-1.7-.1-3.4-.3-5.1-.5-2.6-.4-5.1-.8-7.5-1.4.6 2.5 1.1 5 1.4 7.5.2 1.7.4 3.4.5 5.1.2 0 .5.1.7.1 3.7.7 7.5 1.1 11.4 1.3m6.2-11.9h-3.8c.7 3.9 1.1 7.9 1.3 12h1.2c.2-4.1.7-8.1 1.3-12M52.8 35c-3.9.7-7.9 1.1-12 1.3v1.2c4.1.2 8.1.6 12 1.3v-1.9c-.1-.6-.1-1.2 0-1.9m-32.5 3.9c3.9-.7 7.9-1.1 12-1.3V37v-.6c-4.1-.2-8.1-.6-12-1.3v3.8m14.3 14.3h3.8c-.7-3.9-1.1-7.9-1.3-12h-1.2c-.2 4.1-.6 8.1-1.3 12m20.3 2.2c-.6-2.5-1.1-5-1.4-7.5-.2-1.7-.4-3.4-.5-5.1-.2 0-.5-.1-.7-.1-3.7-.7-7.5-1.1-11.4-1.3.2 3.9.6 7.7 1.3 11.4 0 .2.1.5.1.7 1.7.1 3.4.3 5.1.5 2.5.3 5 .8 7.5 1.4M32.2 41.3c-3.9.2-7.7.6-11.4 1.3-.2 0-.5.1-.7.1-.1 1.7-.3 3.4-.5 5.1-.4 2.5-.8 5.1-1.4 7.5 2.5-.6 5-1.1 7.5-1.4 1.7-.2 3.4-.4 5.1-.5 0-.2.1-.5.1-.7.6-3.7 1.1-7.5 1.3-11.4m27.1 16.2c3-3.3 5.2-7.2 6.6-11.5-3-1-6-1.9-9.1-2.6.1 1.3.3 2.6.4 3.9.4 3.5 1.1 6.9 2.1 10.2m-43-14c-3.1.7-6.2 1.6-9.1 2.6 1.3 4.3 3.6 8.2 6.6 11.5v-.1c.9-3.3 1.6-6.7 2.1-10.1.1-1.3.3-2.6.4-3.9m29.3 22.8c4.3-1.3 8.2-3.6 11.5-6.6H57c-3.3-.9-6.7-1.6-10.1-2.1-1.3-.2-2.6-.3-3.9-.4.7 3.1 1.6 6.1 2.6 9.1M30 57.2c-1.3.1-2.6.3-3.9.4-3.4.5-6.8 1.2-10.1 2.1h-.1c3.3 3 7.2 5.2 11.5 6.6 1-3 1.9-6 2.6-9.1m-.1-54.3l-.2.1-1.6.4C22 4.9 16.4 8 12 12.4c-4.4 4.4-7.6 10-9.1 16.1l-.4 1.6-.1.2.2.1 1.6.6c3.9 1.4 8 2.6 12.1 3.5v5c-4.1.9-8.1 2.1-12.1 3.5l-1.6.6-.2.1.1.2.4 1.6c1.5 6 4.7 11.5 9.1 16 4.4 4.4 10 7.6 16.1 9.1l1.6.4.2.1.1-.2.6-1.6c1.4-3.9 2.6-8 3.5-12.1h5c.9 4.1 2.1 8.2 3.5 12.1l.6 1.6.1.2.2-.1 1.6-.4c6.1-1.5 11.6-4.7 16.1-9.1 4.4-4.4 7.6-10 9.1-16.1l.4-1.6.1-.2-.2-.1-1.6-.6c-3.9-1.4-8-2.6-12.1-3.5v-2.5-2.5c4.1-.9 8.2-2.1 12.1-3.5l1.6-.6.2-.1-.1-.2-.4-1.6c-1.5-6.1-4.7-11.6-9.1-16.1C56.6 8 51 4.8 45 3.3l-1.6-.4-.2-.1-.2.3-.6 1.6c-1.4 3.9-2.6 8-3.5 12.1h-5c-.9-4.1-2.1-8.2-3.5-12.1L30 3.1l-.1-.2zM16.4 14.1c3.1-2.8 6.9-4.9 10.8-6.1.9 2.8 1.8 5.7 2.4 8.5-1.2-.1-2.3-.2-3.5-.4-3.2-.5-6.5-1.2-9.7-2zm26.9 2.4c.7-2.9 1.5-5.8 2.4-8.5 4 1.3 7.7 3.4 10.8 6.1-3.2.9-6.5 1.6-9.8 2-1 .1-2.2.3-3.4.4zM57 30.1c.1-1.2.2-2.4.4-3.5.5-3.3 1.1-6.6 2-9.8 2.8 3.1 4.9 6.9 6.1 10.8-2.7 1-5.6 1.9-8.5 2.5zM7.5 27.7c1.3-4 3.4-7.7 6.1-10.8.9 3.2 1.6 6.5 2 9.7.2 1.1.3 2.3.4 3.5-2.9-.6-5.7-1.5-8.5-2.4zm35-6.9c1.7-.1 3.3-.3 5-.5 2.4-.3 4.8-.8 7.2-1.3-.5 2.3-1 4.7-1.3 7.2-.2 1.7-.4 3.3-.5 5-.2 0-.3.1-.5.1-3.6.6-7.4 1.1-11.1 1.2.2-3.7.6-7.4 1.2-11.1v-.6zM20.3 31c-.1-1.6-.3-3.3-.5-5-.3-2.4-.8-4.8-1.3-7.2 2.3.6 4.8 1 7.2 1.3 1.6.2 3.3.4 5 .5l.1.5c.6 3.6 1.1 7.4 1.2 11.1-3.7-.2-7.4-.6-11.1-1.2-.3.1-.4 0-.6 0zm16.2-10h1.6c-.6 3.8-1.1 7.6-1.2 11.5h-.8c-.2-3.8-.6-7.7-1.2-11.5h1.6zm-16 17.6V37v-1.6c3.8.6 7.6 1.1 11.5 1.2v.8c-3.8.1-7.7.6-11.5 1.2zm20.5-2c3.8-.2 7.7-.6 11.5-1.2v3.2c-3.8-.6-7.6-1.1-11.5-1.2v-.8zm-4.9 4.9h.8c.2 3.8.6 7.7 1.2 11.5h-3.2c.6-3.8 1-7.7 1.2-11.5zm6.4 11.7c0-.2-.1-.3-.1-.5-.6-3.7-1.1-7.4-1.2-11.1 3.7.2 7.5.6 11.1 1.2l.4.1h.1c.1 1.7.3 3.3.5 5 .3 2.4.8 4.8 1.3 7.1-2.4-.6-4.8-1-7.2-1.3-1.6-.2-3.3-.4-4.9-.5zM20.3 42.9l.5-.1c3.6-.6 7.4-1.1 11.1-1.2-.2 3.7-.6 7.5-1.2 11.1 0 .2-.1.3-.1.5-1.7.1-3.3.3-5 .5-2.4.3-4.8.8-7.1 1.3.6-2.3 1-4.7 1.3-7.1.2-1.7.4-3.3.5-5zM7.5 46.2c2.8-.9 5.7-1.8 8.5-2.4-.1 1.2-.2 2.3-.4 3.5-.5 3.3-1.1 6.5-2 9.7-2.8-3.1-4.9-6.8-6.1-10.8zM59.4 57c-.9-3.2-1.6-6.5-2-9.7-.2-1.2-.3-2.3-.4-3.5 2.9.7 5.8 1.5 8.5 2.4-1.2 4-3.3 7.7-6.1 10.8zm-43 2.9c3.2-.9 6.5-1.6 9.7-2 1.2-.2 2.4-.3 3.5-.4-.7 2.9-1.5 5.7-2.4 8.5-3.9-1.3-7.6-3.4-10.8-6.1zM45.8 66c-.9-2.8-1.8-5.7-2.4-8.5 1.1.1 2.3.2 3.5.4 3.3.5 6.6 1.1 9.7 2-3.2 2.7-6.9 4.8-10.8 6.1z"/></g></svg>