<svg xmlns="http://www.w3.org/2000/svg" width="828.5" height="247.9" viewBox="0 0 828.5 247.9"><path fill="#E1E329" d="M205.1 199.5c10.7-12 18.9-26.3 23.7-42.1-10.8-3.7-21.8-6.9-33.1-9.5.4 4.8.9 9.5 1.6 14.2 1.7 12.7 4.3 25 7.7 37.1l.1.3zm-59.1-1.4c2.6 11.4 5.7 22.6 9.4 33.5 15.6-4.9 29.8-13.2 41.6-24l-.4-.1c-11.9-3.4-24.2-6-36.7-7.8-4.5-.7-9.2-1.2-13.9-1.6zm-98.1 9.5c11.8 10.8 26 19.1 41.6 24 3.7-10.9 6.8-22.1 9.4-33.5-4.7.4-9.4.9-14 1.6-12.5 1.8-24.7 4.4-36.7 7.8l-.3.1zm1.3-59.8c-11.3 2.6-22.3 5.8-33.1 9.5 4.8 15.8 13 30.1 23.7 42.1l.1-.4c3.4-12.1 6-24.5 7.7-37.1.7-4.6 1.2-9.3 1.6-14.1zm-9.3-99.4C29.2 60.4 21 74.8 16.1 90.6c10.8 3.7 21.8 6.9 33.1 9.5-.4-4.8-.9-9.5-1.6-14.1-1.7-12.7-4.3-25-7.7-37.1v-.5zm59 1.4c-2.6-11.4-5.7-22.6-9.4-33.5-15.6 4.9-29.8 13.2-41.6 24l.4.1c11.9 3.4 24.2 6 36.7 7.8 4.5.7 9.2 1.2 13.9 1.6zm96.8 50.3c11.3-2.6 22.4-5.8 33.1-9.5-4.9-15.8-13.1-30.2-23.8-42.1l-.1.4c-3.4 12.1-6 24.5-7.7 37.1-.6 4.6-1.1 9.3-1.5 14.1zm1.4-59.8c-11.8-10.8-26-19.1-41.6-24-3.7 10.9-6.8 22.1-9.4 33.5 4.7-.4 9.4-.9 14-1.6 12.5-1.8 24.7-4.4 36.7-7.8l.3-.1zM152.8 1.5c22.2 5.6 42.1 17.3 57.8 33.2 15.7 15.9 27.3 36 32.8 58.5l1.5 5.9-5.7 2.1c-14.4 5.3-29.2 9.7-44.4 13-.1 3.2-.2 6.5-.2 9.8 0 3.3.1 6.5.2 9.8 15.2 3.3 30 7.7 44.4 13l5.7 2.1-1.5 5.9c-5.6 22.5-17.1 42.6-32.8 58.5-15.7 15.9-35.6 27.6-57.8 33.2l-5.9 1.5-2.1-5.8c-5.2-14.6-9.5-29.6-12.8-44.9-3.2-.1-6.4-.2-9.7-.2-3.2 0-6.5.1-9.7.2-3.3 15.3-7.6 30.3-12.8 44.9l-2.1 5.8-5.9-1.5c-22.3-5.6-42.1-17.3-57.8-33.2-15.7-15.9-27.2-36-32.8-58.5l-1.2-6 5.7-2.1c14.4-5.3 29.2-9.6 44.4-13 .1-3.2.2-6.5.2-9.8 0-3.3-.1-6.5-.2-9.8-15.2-3.3-30-7.7-44.4-13l-5.7-2 1.5-5.9C7 70.7 18.6 50.6 34.3 34.7 50 18.8 69.8 7.1 92.1 1.5L97.9 0l2.1 5.8c5.2 14.6 9.5 29.6 12.8 44.9 3.2.1 6.4.2 9.7.2 3.2 0 6.5-.1 9.7-.2 3.3-15.3 7.6-30.3 12.8-44.9l2-5.8 5.8 1.5zM63.6 116.8c.1 2.4.1 4.7.1 7.1 0 2.4 0 4.7-.1 7.1 14.2-2.5 28.7-4.1 43.5-4.8v-2.3-2.3c-14.8-.6-29.3-2.3-43.5-4.8zm38.1-53.1c-6.2-.5-12.5-1.1-18.6-2-9.2-1.3-18.3-3-27.3-5.2 2.1 9 3.9 18.2 5.1 27.6.9 6.2 1.5 12.5 2 18.8.8.2 1.6.3 2.5.4 13.5 2.4 27.3 4 41.3 4.6-.7-14.2-2.2-28.2-4.6-41.8-.1-.8-.3-1.6-.4-2.4zm27.8.6c-2.3.1-4.7.1-7 .1s-4.7 0-7-.1c2.5 14.4 4.1 29.1 4.7 44h4.6c.6-14.9 2.2-29.6 4.7-44zm52.5 38.6c.5-6.3 1.1-12.6 2-18.8 1.3-9.4 3-18.6 5.1-27.6-8.9 2.2-18 3.9-27.3 5.2-6.2.9-12.4 1.5-18.6 2-.2.8-.3 1.7-.4 2.5-2.4 13.7-3.9 27.6-4.6 41.8 14-.7 27.8-2.2 41.3-4.6.9-.2 1.7-.3 2.5-.5zm-.7 28.2c-.1-2.4-.1-4.7-.1-7.1 0-2.4 0-4.7.1-7.1-14.2 2.5-28.7 4.1-43.5 4.8v4.6c14.8.7 29.3 2.3 43.5 4.8zm-38.1 53.1c6.3.5 12.5 1.1 18.6 2 9.2 1.3 18.3 3 27.3 5.2-2.1-9-3.9-18.2-5.1-27.6-.9-6.2-1.5-12.5-2-18.9-.8-.1-1.6-.3-2.5-.4-13.5-2.4-27.3-4-41.3-4.6.7 14.2 2.2 28.2 4.6 41.8.1.9.3 1.7.4 2.5zm-27.8-.6c2.3-.1 4.7-.1 7-.1s4.7 0 7 .1c-2.5-14.4-4.1-29.1-4.7-44h-4.6c-.6 14.9-2.2 29.6-4.7 44zm-59.6 7.8c8.9-2.2 18-3.9 27.3-5.2 6.2-.9 12.4-1.5 18.6-2 .2-.8.3-1.7.4-2.5 2.4-13.7 3.9-27.6 4.6-41.8-14 .7-27.8 2.2-41.3 4.6-.8.1-1.6.3-2.5.4-.5 6.3-1.1 12.6-2 18.9-1.2 9.4-3 18.6-5.1 27.6z"/><g fill="#101016"><path d="M332.7 82.5c5.7 0 11 1.1 16 3.2s9.4 5.1 13.2 8.9l-9.8 9.7c-5.3-5.4-11.7-8.1-19.3-8.1-7.5 0-14 2.7-19.4 8.1-5.3 5.4-7.9 11.8-7.9 19.3s2.6 14 7.9 19.4c5.5 5.3 11.9 7.9 19.4 7.9 4.1 0 7.9-.8 11.4-2.4 3.5-1.6 6.6-3.9 9.2-6.8v-11.3h-20.6v-13.6h34.4v29.4c-1.9 2.8-4.1 5.3-6.6 7.6s-5.2 4.2-8.1 5.9c-2.9 1.6-6 2.9-9.4 3.7-3.3.9-6.8 1.3-10.3 1.3-11.4 0-21.1-4-29-12.1-8.1-8-12.1-17.7-12.1-29s4-21 12.1-29c7.9-8.1 17.6-12.1 28.9-12.1zM390.8 82.5h13.6V151h41.1v13.8h-54.8V82.5zM510.4 82.5c11.4 0 21.1 4 29 12.1 8.1 8.1 12.2 17.7 12.2 29 0 11.5-4.1 21.1-12.2 29-8 8.1-17.7 12.1-29 12.1-11.4 0-21.1-4-29-12.1-8.1-8-12.1-17.7-12.1-29s4-21 12.1-29c7.9-8.1 17.6-12.1 29-12.1zm0 13.7c-7.5 0-14 2.7-19.4 8.1-5.3 5.4-7.9 11.8-7.9 19.3s2.6 14 7.9 19.4c5.5 5.3 11.9 7.9 19.4 7.9 7.5 0 13.9-2.6 19.3-7.9 5.4-5.5 8.1-11.9 8.1-19.4 0-7.5-2.7-13.9-8.1-19.3-5.3-5.4-11.8-8.1-19.3-8.1zM636.7 123.6c4.8 4.7 7.2 10.4 7.2 17.2 0 3.2-.6 6.3-1.9 9.2-1.3 2.9-3 5.5-5.2 7.6-2.2 2.2-4.7 3.9-7.6 5.2-2.9 1.3-6 1.9-9.2 1.9h-44.6V82.5H620c3.2 0 6.2.6 9.2 1.9 3 1.3 5.5 3 7.7 5.2s3.9 4.7 5.2 7.6c1.3 2.9 1.9 6 1.9 9.2-.1 6.7-2.5 12.5-7.3 17.2zm-16.8-27.4H589v20.6h30.9c1.3 0 2.6-.3 3.9-.8 1.3-.5 2.4-1.3 3.3-2.2 1-.9 1.7-2.1 2.2-3.3.5-1.3.8-2.6.8-4 0-1.3-.3-2.6-.8-3.9-.5-1.3-1.2-2.4-2.2-3.3-.9-.9-2.1-1.7-3.3-2.2-1.2-.6-2.5-.9-3.9-.9zm0 54.8c1.3 0 2.6-.3 3.9-.8 1.3-.5 2.4-1.2 3.3-2.2 1-.9 1.7-2.1 2.2-3.3.5-1.3.8-2.6.8-3.9 0-1.3-.3-2.7-.8-3.9-.5-1.3-1.2-2.4-2.1-3.3-.9-.9-2-1.7-3.3-2.3-1.3-.5-2.6-.8-4-.8H589V151h30.9zM727.7 151h-37.8l-7 13.8h-15.3l41.1-82.3 41.1 82.3h-15.3l-6.8-13.8zm-31.1-13.6h24.2l-12.1-24.2-12.1 24.2zM773.6 82.5h13.6V151h41.1v13.8h-54.8V82.5z"/></g><g fill="#010202"><path d="M464.1 184.8h22.3v4.5h-8.9v22.2H473v-22.2h-8.9v-4.5zM511.2 211.5l-5.2-8.9h-7.5v8.9h-4.4v-26.7h13.3c2.4 0 4.5.9 6.3 2.6 1.7 1.7 2.6 3.8 2.6 6.3 0 1.8-.5 3.5-1.6 5-1 1.5-2.3 2.6-3.9 3.2l5.5 9.6h-5.1zm-3.8-22.3h-8.9v8.8h8.9c1.2 0 2.2-.4 3.1-1.3.9-.9 1.3-1.9 1.3-3.2 0-1.2-.4-2.2-1.3-3.1-.8-.7-1.9-1.2-3.1-1.2zM543.5 207h-12.3l-2.3 4.5h-5l13.3-26.7 13.3 26.7h-5l-2-4.5zm-10.1-4.4h7.8l-3.9-7.8-3.9 7.8zM558.4 184.8h8.9c1.8 0 3.5.4 5.2 1.1 1.6.7 3 1.7 4.3 2.9 1.2 1.2 2.2 2.6 2.9 4.3s1.1 3.3 1.1 5.2-.4 3.5-1.1 5.2-1.7 3-2.9 4.3-2.6 2.2-4.3 2.9-3.4 1.1-5.2 1.1h-8.9v-27zm8.9 22.2c1.2 0 2.4-.2 3.5-.7 1.1-.5 2-1.1 2.8-1.9.8-.8 1.4-1.8 1.9-2.8s.7-2.2.7-3.4-.2-2.3-.7-3.4c-.5-1.1-1.1-2-1.9-2.8-.8-.8-1.8-1.5-2.8-1.9-1.1-.5-2.2-.7-3.4-.7h-4.5V207h4.4zM606.1 184.8v4.5h-13.3v6.7h13.3v4.4h-13.3v6.7h13.3v4.5h-17.8v-26.7h17.8zM638.9 184.8c1.8 0 3.6.3 5.2 1s3 1.7 4.3 2.9l-3.2 3.2c-1.7-1.7-3.8-2.6-6.3-2.6-1.2 0-2.4.2-3.5.7-1.1.5-2 1.1-2.8 1.9s-1.4 1.8-1.9 2.8-.7 2.2-.7 3.5c0 1.2.2 2.4.7 3.5s1.1 2 1.9 2.8 1.7 1.4 2.8 1.9c1.1.5 2.3.7 3.5.7 2.4 0 4.5-.9 6.3-2.6l3.2 3.1c-1.2 1.2-2.6 2.2-4.3 2.9s-3.3 1-5.2 1c-1.8 0-3.6-.4-5.2-1.1s-3-1.7-4.3-2.9-2.2-2.6-2.9-4.2c-.7-1.6-1.1-3.3-1.1-5.2 0-1.8.4-3.5 1.1-5.1s1.7-3.1 2.9-4.3 2.6-2.2 4.3-2.9c1.6-.7 3.3-1 5.2-1zM669.3 184.8c3.7 0 6.8 1.3 9.4 3.9 2.6 2.6 4 5.8 4 9.4 0 3.7-1.3 6.9-4 9.4-2.6 2.6-5.7 3.9-9.4 3.9s-6.8-1.3-9.4-3.9c-2.6-2.6-3.9-5.7-3.9-9.4s1.3-6.8 3.9-9.4c2.6-2.6 5.7-3.9 9.4-3.9zm0 4.4c-2.4 0-4.5.9-6.3 2.6-1.7 1.7-2.6 3.8-2.6 6.3 0 2.4.9 4.5 2.6 6.3 1.8 1.7 3.9 2.6 6.3 2.6s4.5-.9 6.3-2.6c1.7-1.8 2.6-3.9 2.6-6.3s-.9-4.5-2.6-6.3c-1.8-1.7-3.8-2.6-6.3-2.6zM690.4 184.7l17.8 16v-16h4.5v26.8l-17.8-16v16h-4.4v-26.8zM720.3 184.7l17.8 16v-16h4.5v26.8l-17.8-16v16h-4.4v-26.8zM768 184.8v4.5h-13.3v6.7H768v4.4h-13.3v6.7H768v4.5h-17.8v-26.7H768zM789.1 184.8c1.8 0 3.6.3 5.2 1s3 1.7 4.3 2.9l-3.2 3.2c-1.7-1.7-3.8-2.6-6.3-2.6-1.2 0-2.4.2-3.5.7-1.1.5-2 1.1-2.8 1.9s-1.4 1.8-1.9 2.8-.7 2.2-.7 3.5c0 1.2.2 2.4.7 3.5s1.1 2 1.9 2.8 1.7 1.4 2.8 1.9c1.1.5 2.3.7 3.5.7 2.4 0 4.5-.9 6.3-2.6l3.2 3.1c-1.2 1.2-2.6 2.2-4.3 2.9s-3.3 1-5.2 1c-1.8 0-3.6-.4-5.2-1.1s-3-1.7-4.3-2.9-2.2-2.6-2.9-4.2c-.7-1.6-1.1-3.3-1.1-5.2 0-1.8.4-3.5 1.1-5.1s1.7-3.1 2.9-4.3 2.6-2.2 4.3-2.9c1.6-.7 3.3-1 5.2-1zM806.2 184.8h22.3v4.5h-8.9v22.2h-4.5v-22.2h-8.9v-4.5z"/></g><g fill="#4275BA"><path d="M142.3 232.4c-4.8-13.2-8.7-26.8-11.7-40.4-2.7-.1-5.4-.1-8.1-.1-2.7 0-5.5 0-8.1.1-3 13.7-6.9 27.3-11.7 40.4l-2.2 6.1-6.3-1.6c-20.4-5.1-39.1-15.7-54-30.6-14.9-14.9-25.5-33.6-30.6-54L7.9 146l6.1-2.2c13.2-4.8 26.8-8.7 40.4-11.7.1-2.7.1-5.4.1-8.1 0-2.7 0-5.4-.1-8.1-13.7-3-27.3-6.9-40.4-11.7L7.9 102l1.6-6.3c5.1-20.4 15.7-39 30.6-54 14.9-15 33.6-25.6 54-30.7l6.3-1.6 2.2 6.1c4.8 13.2 8.7 26.8 11.7 40.4 2.7.1 5.4.1 8.1.1s5.5 0 8.1-.1c3-13.7 6.9-27.3 11.7-40.4l2.2-6.1 6.3 1.6c20.4 5.1 39 15.7 53.9 30.6 14.9 14.9 25.6 33.6 30.7 54l1.6 6.3-6.1 2.2c-13.2 4.8-26.8 8.7-40.5 11.7-.1 2.7-.1 5.4-.1 8.1 0 2.7 0 5.4.1 8.1 13.7 3 27.3 6.9 40.4 11.7l6.1 2.2-1.6 6.3c-5.1 20.4-15.7 39-30.6 54-14.9 14.9-33.6 25.5-54 30.6l-6.3 1.6-2-6zm3.3-39.6c2.2 9.6 4.9 19.1 8 28.3 13.1-4.2 25.4-11.2 35.9-20.3-10.6-2.9-21.5-5.2-32.4-6.7-3.9-.5-7.7-.9-11.5-1.3zm-90.2 8.1c10.4 9.1 22.8 16.1 35.9 20.3 3.1-9.3 5.8-18.8 8-28.3-3.8.3-7.7.8-11.5 1.3-10.9 1.5-21.8 3.7-32.4 6.7zm-30.1-45.8c4.2 13.1 11.2 25.4 20.3 35.9 2.9-10.6 5.2-21.5 6.7-32.4.5-3.8 1-7.7 1.3-11.5-9.6 2.2-19.1 4.9-28.3 8zm166-8c.4 3.9.8 7.7 1.3 11.5 1.5 10.9 3.8 21.8 6.7 32.4 9.1-10.4 16.1-22.8 20.3-35.9-9.2-3.1-18.7-5.8-28.3-8zm-123-3.1c-.4 5.5-1 11.1-1.8 16.5-1.1 8-2.6 15.9-4.4 23.7 7.8-1.8 15.8-3.3 23.7-4.4 5.5-.8 11-1.4 16.5-1.8l.3-1.5c2.1-12.2 3.5-24.6 4.2-37-12.4.6-24.9 2-37 4.2-.5.2-1 .2-1.5.3zm74.2 34.1c5.5.4 11.1 1 16.5 1.8 8 1.1 15.9 2.6 23.7 4.4-1.8-7.8-3.3-15.8-4.4-23.7-.8-5.5-1.4-11-1.8-16.5l-1.5-.3c-12.2-2.1-24.6-3.5-37-4.2.6 12.4 2 24.9 4.2 37l.3 1.5zm-21.2-38.9c-.6 12.8-2 25.6-4.1 38.2 1.7 0 3.5-.1 5.3-.1s3.6 0 5.3.1c-2.1-12.6-3.5-25.4-4.1-38.2h-2.4zM69 118.6c0 1.8.1 3.6.1 5.3 0 1.8 0 3.5-.1 5.3 12.6-2.1 25.4-3.5 38.2-4.1v-2.4c-12.8-.5-25.6-1.9-38.2-4.1zm68.7 6.5c12.8.6 25.7 2 38.2 4.1 0-1.8-.1-3.5-.1-5.3 0-1.8 0-3.6.1-5.3-12.6 2.1-25.4 3.5-38.2 4.1v2.4zm-14.1-16.4c.6-12.8 2-25.6 4.1-38.2-1.8 0-3.5.1-5.3.1s-3.6 0-5.3-.1c2.1 12.6 3.5 25.4 4.1 38.2h2.4zm-53.8-4.5c12.2 2.1 24.6 3.5 37 4.2-.6-12.4-2-24.9-4.2-37l-.3-1.5c-5.5-.4-11-1-16.5-1.8-8-1.1-15.9-2.6-23.8-4.4 1.8 7.8 3.3 15.8 4.4 23.8.8 5.5 1.3 11 1.8 16.5.6 0 1.1.1 1.6.2zm72.5-32.9c-2.1 12.2-3.5 24.6-4.2 37 12.4-.6 24.9-2 37-4.2l1.5-.3c.4-5.5 1-11 1.8-16.5 1.1-8 2.6-16 4.4-23.7-7.8 1.8-15.8 3.3-23.7 4.4-5.5.8-11 1.4-16.5 1.8-.2.5-.3 1-.3 1.5zm-117 21.5c9.2 3.1 18.7 5.8 28.3 8-.4-3.9-.8-7.7-1.3-11.5-1.5-10.9-3.8-21.8-6.7-32.4-9.1 10.5-16.1 22.8-20.3 35.9zm174.1-35.9c-2.9 10.6-5.2 21.5-6.7 32.4-.5 3.8-1 7.6-1.3 11.5 9.5-2.2 19.1-4.9 28.3-8.1-4.3-13-11.2-25.4-20.3-35.8zm-144-9.8C66 50 76.9 52.2 87.8 53.8c3.8.5 7.7 1 11.5 1.3-2.2-9.5-4.9-19-8-28.3C78.2 31 65.9 38 55.4 47.1zm98.2-20.3c-3.1 9.2-5.8 18.7-8 28.3 3.8-.3 7.7-.8 11.5-1.3 10.9-1.5 21.8-3.8 32.4-6.7-10.4-9.1-22.8-16.1-35.9-20.3z"/><path d="M99.8 10.6l1.9 5.3c4.8 13.3 8.8 27 11.8 41.1 3 .1 5.9.2 8.9.2s6-.1 8.9-.2c3-14 7-27.7 11.8-41.1l1.9-5.3 5.4 1.4c20.6 5.2 38.9 15.8 53.5 30.3 14.5 14.5 25.2 32.9 30.4 53.5l1.4 5.4-5.3 1.9c-13.3 4.8-27 8.8-41.1 11.9-.1 3-.2 5.9-.2 8.9s.1 6 .2 8.9c14 3 27.7 7 41.1 11.8l5.3 1.9-1.4 5.4c-5.2 20.6-15.8 39-30.4 53.5-14.5 14.5-32.9 25.2-53.5 30.4l-5.4 1.4-1.9-5.3c-4.8-13.3-8.8-27-11.9-41.1-3-.1-5.9-.2-8.9-.2s-6 .1-8.9.2c-3 14-7 27.7-11.8 41.1l-1.9 5.3-5.4-1.4c-20.6-5.2-39-15.8-53.5-30.4-14.5-14.5-25.2-32.9-30.4-53.5L9 146.5l5.3-1.9c13.3-4.8 27-8.8 41.1-11.8.1-3 .2-5.9.2-8.9s-.1-6-.2-8.9c-14-3-27.7-7-41.1-11.8L9 101.3l1.4-5.4c5.2-20.6 15.8-39 30.3-53.5 14.7-14.6 33-25.3 53.6-30.4l5.5-1.4m.8 45.6c-2.4-10.4-5.3-20.7-8.7-30.7-14.5 4.5-27.6 12.1-38.5 22l.4.1c11 3.1 22.4 5.5 33.9 7.1 4.3.6 8.6 1.1 12.9 1.5m43.7 0c4.4-.4 8.7-.9 12.9-1.4 11.6-1.6 22.9-4 33.9-7.1l.4-.1c-11-9.9-24.1-17.5-38.5-22-3.4 9.9-6.3 20.1-8.7 30.6m45.9 45.9c10.5-2.4 20.7-5.3 30.7-8.7-4.5-14.5-12.1-27.6-22-38.5l-.1.4c-3.1 11-5.5 22.4-7.1 33.9-.6 4.3-1.1 8.6-1.5 12.9m-135.5 0c-.4-4.4-.9-8.7-1.4-12.9-1.6-11.6-4-22.9-7.1-33.9l-.2-.4c-9.9 11-17.5 24.1-22 38.5 10 3.5 20.2 6.4 30.7 8.7m129.4-39.8c-8.3 2-16.7 3.6-25.2 4.8-5.7.8-11.5 1.4-17.2 1.8-.1.8-.3 1.5-.4 2.3-2.2 12.5-3.6 25.3-4.2 38.3 13-.6 25.8-2 38.3-4.2.8-.1 1.5-.3 2.3-.4.4-5.8 1-11.5 1.8-17.2 1.1-8.8 2.7-17.2 4.6-25.4m-76.2 47.1c-.6-13-2-25.8-4.2-38.3-.1-.8-.3-1.5-.4-2.3-5.8-.4-11.5-1-17.2-1.8-8.6-1.2-17-2.8-25.2-4.8 2 8.3 3.6 16.7 4.8 25.2.8 5.7 1.4 11.4 1.8 17.2.8.1 1.5.3 2.3.4 12.3 2.3 25.1 3.8 38.1 4.4M129 69.5c-2.2.1-4.3.1-6.5.1s-4.3 0-6.5-.1c2.3 13.2 3.8 26.6 4.4 40.2h4.2c.6-13.6 2.1-27.1 4.4-40.2m48 48c-13.2 2.3-26.6 3.8-40.2 4.4v4.2c13.7.6 27.1 2.1 40.2 4.4-.1-2.2-.1-4.3-.1-6.5s0-4.4.1-6.5m-109 13c13.2-2.3 26.6-3.8 40.2-4.4V124v-2.1c-13.6-.6-27.1-2.1-40.2-4.4.1 2.2.1 4.3.1 6.5-.1 2.1-.1 4.3-.1 6.5m47.9 48c2.2-.1 4.3-.1 6.5-.1s4.3 0 6.5.1c-2.3-13.2-3.8-26.6-4.4-40.2h-4.2c-.6 13.6-2.1 27-4.4 40.2m68.2 7.2c-2-8.3-3.6-16.7-4.8-25.2-.8-5.7-1.4-11.5-1.8-17.2-.8-.1-1.5-.3-2.3-.4-12.5-2.2-25.3-3.6-38.3-4.2.6 13 2 25.8 4.2 38.3.1.8.3 1.5.4 2.3 5.8.4 11.5 1 17.2 1.8 8.8 1 17.2 2.6 25.4 4.6m-76.2-47.2c-13 .6-25.8 2-38.3 4.2-.8.1-1.5.3-2.3.4a255.006 255.006 0 0 1-6.6 42.5c8.3-2 16.7-3.6 25.2-4.8 5.7-.8 11.5-1.4 17.2-1.8.1-.8.3-1.5.4-2.3 2.3-12.4 3.7-25.2 4.4-38.2m91 54.5c9.9-11 17.5-24.1 22-38.5-10-3.4-20.2-6.3-30.7-8.7.4 4.4.9 8.7 1.4 13 1.6 11.6 4 22.9 7.1 33.9l.2.3M54.7 145.8c-10.4 2.4-20.7 5.3-30.7 8.7C28.5 169 36.1 182 46 193l.1-.3c3.1-11 5.5-22.4 7.1-33.9.6-4.3 1.1-8.7 1.5-13m98.3 76.6c14.5-4.5 27.6-12.1 38.5-22l-.3-.1c-11-3.1-22.4-5.5-33.9-7.1-4.3-.6-8.6-1.1-12.9-1.4 2.3 10.4 5.2 20.6 8.6 30.6m-52.4-30.7c-4.4.4-8.7.9-13 1.4-11.6 1.6-22.9 4-33.9 7.1l-.3.1c11 9.9 24.1 17.5 38.5 22 3.4-9.9 6.4-20.1 8.7-30.6M101 8.2l-1.8.4-5.3 1.4c-20.6 5.2-39.4 15.8-54.4 30.9C24.4 56 13.7 74.8 8.5 95.4l-1.4 5.4-.4 1.7 1.7.6 5.3 1.9c13 4.7 26.4 8.6 39.8 11.6.1 2.4.1 4.9.1 7.3 0 2.4 0 4.9-.1 7.3-13.5 3-26.8 6.9-39.8 11.6l-5.3 1.9-1.7.6.4 1.8 1.4 5.4c5.1 20.6 15.8 39.4 30.9 54.4 15.1 15.1 33.9 25.7 54.4 30.9l5.4 1.4 1.7.4.6-1.7 1.9-5.3c4.7-13 8.6-26.3 11.6-39.8 2.4-.1 4.9-.1 7.3-.1s4.9 0 7.3.1c3 13.5 6.9 26.8 11.6 39.8l1.9 5.3.6 1.7 1.8-.4 5.4-1.4c20.6-5.1 39.4-15.8 54.4-30.9 15.1-15.1 25.7-33.9 30.9-54.4l1.4-5.4.4-1.8-1.7-.6-5.3-1.9c-13-4.7-26.4-8.6-39.8-11.6-.1-2.4-.1-4.9-.1-7.3 0-2.4 0-4.9.1-7.3 13.5-3 26.8-6.9 39.8-11.6l5.3-1.9 1.7-.6-.4-1.8-1.4-5.4c-5.2-20.5-15.9-39.4-30.9-54.4-15.1-15.1-33.9-25.7-54.4-30.9l-5.4-1.4-1.7-.4-.6 1.7-1.9 5.3c-4.7 13-8.6 26.4-11.6 39.8-2.4.1-4.9.1-7.3.1s-4.9 0-7.3-.1c-3-13.5-6.9-26.8-11.6-39.8l-1.9-5.3-.6-1.7zM57.5 46.6C67.3 38.4 78.6 32 90.7 28c2.8 8.5 5.3 17.2 7.4 25.9-3.4-.3-6.8-.7-10.1-1.2-10.3-1.4-20.5-3.4-30.5-6.1zm89.4 7.3c2.1-8.7 4.6-17.4 7.4-25.9 12 4 23.4 10.3 33.2 18.5-10 2.7-20.2 4.8-30.5 6.2-3.4.5-6.8.9-10.1 1.2zm45.6 45.7c.3-3.4.7-6.8 1.2-10.1 1.4-10.2 3.5-20.5 6.2-30.5 8.2 9.8 14.6 21.1 18.6 33.2-8.6 2.8-17.3 5.3-26 7.4zm-166-7.4c4-12 10.3-23.4 18.5-33.1 2.7 10 4.8 20.2 6.2 30.4.5 3.3.9 6.7 1.2 10.1-8.7-2.1-17.4-4.6-25.9-7.4zm116.9-21.5c5.3-.4 10.6-1 15.8-1.7 7.5-1 14.9-2.4 22.3-4.1-1.7 7.3-3 14.8-4.1 22.3-.7 5.3-1.3 10.6-1.7 15.8-.2 0-.5.1-.7.1-11.8 2.1-23.8 3.4-35.8 4.1.7-12 2-24 4.1-35.8 0-.2 0-.4.1-.7zM69.2 103c-.4-5.3-1-10.6-1.7-15.8-1-7.5-2.4-15-4.1-22.3 7.3 1.7 14.8 3 22.3 4.1 5.2.7 10.6 1.3 15.8 1.7 0 .2.1.5.1.7 2.1 11.8 3.4 23.8 4.1 35.8-12-.7-24-2-35.8-4.1-.2 0-.4 0-.7-.1zm53 4.7c-.6-12.1-1.9-24.3-3.9-36.2h8.2c-2 11.9-3.3 24.1-3.9 36.2h-.2-.2zM70 128.1V124v-4.1c11.9 2 24.1 3.3 36.2 3.9v.4c-12.1.6-24.3 1.9-36.2 3.9zm68.7-4.4c12.1-.6 24.3-1.9 36.2-3.9v8.2c-11.9-2-24.1-3.3-36.2-3.9v-.2-.2zm-16.5 16.5h.4c.6 12.1 1.9 24.3 3.9 36.2h-8.2c2-11.9 3.3-24.1 3.9-36.2zm21.2 37c0-.2-.1-.5-.1-.7-2.1-11.8-3.4-23.8-4.1-35.8 12 .7 24 2 35.8 4.1.2 0 .5.1.7.1.4 5.3 1 10.6 1.7 15.8 1 7.4 2.4 14.9 4.1 22.3-7.3-1.7-14.8-3-22.3-4.1-5.2-.7-10.5-1.3-15.8-1.7zm-74.2-32.3c.2 0 .5-.1.7-.1 11.7-2.1 23.8-3.4 35.8-4.1-.7 12-2 24-4.1 35.8 0 .2-.1.5-.1.7-5.3.4-10.6 1-15.8 1.7-7.5 1-14.9 2.4-22.3 4.1 1.7-7.3 3-14.8 4.1-22.3.7-5.2 1.3-10.5 1.7-15.8zm130.6 44c-2.7-10-4.8-20.2-6.2-30.4-.5-3.3-.9-6.7-1.2-10.1 8.7 2.1 17.4 4.6 25.9 7.4-3.9 12-10.3 23.3-18.5 33.1zM26.5 155.7c8.5-2.8 17.2-5.3 25.9-7.4-.3 3.4-.7 6.8-1.2 10.1-1.4 10.2-3.5 20.4-6.2 30.4-8.1-9.7-14.5-21-18.5-33.1zm31 45.6c10-2.7 20.2-4.8 30.4-6.2 3.4-.5 6.8-.9 10.1-1.2-2.1 8.7-4.5 17.4-7.4 25.9-11.9-3.9-23.3-10.3-33.1-18.5zm96.7 18.6c-2.8-8.5-5.3-17.2-7.4-25.9 3.3.3 6.7.7 10.1 1.2 10.2 1.4 20.4 3.5 30.4 6.2-9.7 8.1-21 14.5-33.1 18.5z"/></g></svg>