<svg xmlns="http://www.w3.org/2000/svg" width="22.1" height="18" viewBox="0 0 22.1 18"><path fill="#4179A6" d="M0 16c2.4.2 4.6-.4 6.6-1.9-1-.1-1.9-.3-2.6-.9-.8-.6-1.3-1.3-1.6-2.2.7.1 1.3.1 2-.1C2.2 10.2 1 8.7.8 6.4c.7.3 1.3.5 2 .6C.8 5.3.3 3.3 1.4.9 3.9 3.7 7 5.3 10.8 5.6c0-.2-.1-.4-.1-.6-.2-2.3 1.4-4.5 3.6-4.9 1.6-.3 2.9.1 4.1 1.2.1.1.2.1.3.1.9-.2 1.7-.5 2.5-.9.1 0 .1-.1.2-.1-.2.5-.4 1-.7 1.4s-.7.7-1.1 1l1.2-.3c.4-.1.8-.3 1.3-.4-.2.3-.3.5-.6.7L20 4.3c-.1.1-.2.2-.2.3 0 4.2-1.5 7.7-4.7 10.4-1.7 1.5-3.7 2.3-5.9 2.7-2.4.4-4.7.2-6.9-.6-.8-.2-1.6-.6-2.3-1.1z"/></svg>