<svg xmlns="http://www.w3.org/2000/svg" width="16" height="15.3" viewBox="0 0 16 15.3"><g fill="#4E4E4E"><path d="M5.5 15.3V5h3.2c.2 0 .3 0 .3.1v1.3c.1-.1.2-.3.3-.4.6-.7 1.3-1.1 2.2-1.2.8-.1 1.6 0 2.3.4.7.3 1.1.8 1.5 1.4.5.8.7 1.8.7 2.8V15.3h-3.4v-.2-5.3c0-.5 0-.9-.2-1.4-.3-.7-.9-1.1-1.7-1.1-.9.2-1.4.7-1.6 1.5-.1.3-.1.6-.1.8v5.5c0 .2 0 .2-.2.2H5.5zM3.6 15.3H.4c-.1 0-.2 0-.2-.2v-10c0-.1 0-.1.2-.1h3.2v10.3zM1.9 3.6c-.7 0-1.3-.2-1.6-.8-.6-.9-.3-2.3 1-2.6.6-.3 1.3-.2 1.8.2.6.4.8 1 .7 1.7 0 .6-.4 1.1-1.1 1.3-.2.1-.5.1-.8.2z"/></g></svg>