<svg xmlns="http://www.w3.org/2000/svg" width="16" height="16" viewBox="0 0 16 16"><g fill="#4E4E4E"><path d="M.8 0h1.5l1 3.3 1-3.3h1.4L4 4.8v3.4H2.6V5zM5.8 3.5c0-.5.2-.8.5-1.1.4-.3.9-.4 1.5-.4.5 0 1 .1 1.3.4.3.3.5.7.5 1.1v3.1c0 .5-.2.9-.5 1.2-.3.4-.8.6-1.4.6-.6 0-1-.2-1.4-.5-.3-.3-.5-.7-.5-1.2V3.5zm1.4 3.3c0 .2 0 .3.1.4.1.1.2.1.4.1s.3 0 .4-.1c.1-.1.2-.2.2-.4V3.5c0-.1-.1-.2-.2-.3-.1-.1-.2-.1-.4-.1s-.3 0-.4.1c-.1.1-.1.2-.1.3v3.3zM14.4 2.2v6.1h-1.3v-.7c-.2.2-.5.4-.7.6-.3.1-.5.2-.8.2-.3 0-.5-.1-.7-.3-.2-.2-.2-.5-.2-.8V2.2H12v4.7c0 .1 0 .2.1.3.1.1.1.1.3.1.1 0 .2 0 .4-.1 0-.2.2-.3.3-.4V2.2h1.3zM4 8.4H0v1.1h1.3v6.3h1.3V9.5H4zM6.6 14.5c-.1.1-.2.2-.4.3-.1.1-.2.1-.3.1-.1 0-.2 0-.2-.1s-.1-.2-.1-.3v-4.2H4.5v4.6c0 .3.1.6.2.7.1.2.3.2.6.2.2 0 .4-.1.7-.2.2-.1.5-.3.7-.5v.6h1.2v-5.5H6.6v4.3zM11.7 10.6c-.2-.2-.5-.4-.8-.4-.2 0-.4 0-.5.1-.2.1-.3.2-.5.4V8.4H8.7v7.5h1.2v-.4c.2.2.3.3.5.4.2.1.4.1.6.1.3 0 .6-.1.8-.3.2-.2.3-.5.3-.9v-3.1c-.1-.5-.2-.8-.4-1.1m-.9 4c0 .2 0 .3-.1.4-.1.1-.2.1-.3.1-.1 0-.2 0-.3-.1-.1 0-.2-.1-.3-.2v-3.4c.1-.1.2-.1.2-.2.1 0 .2-.1.2-.1.2 0 .3 0 .4.1.1.1.1.2.1.4v3zM16 13.2v-1.4c0-.5-.1-.9-.4-1.2-.3-.3-.7-.4-1.2-.4s-.9.2-1.3.5c-.3.3-.5.7-.5 1.2v2.5c0 .5.2.9.4 1.3.3.3.7.5 1.2.5.6 0 1-.1 1.3-.4.3-.3.4-.7.4-1.3V14h-1.2v.3c0 .3 0 .5-.1.6 0 .1-.1.1-.3.1-.2 0-.3-.1-.4-.2-.1-.1-.1-.3-.1-.6v-1H16zm-2.2-1.4c0-.2 0-.4.1-.5.1-.1.2-.2.4-.2s.3 0 .4.2c.1.1.1.3.1.5v.6h-1v-.6z"/></g></svg>