<svg xmlns="http://www.w3.org/2000/svg" width="24.6" height="23.6" viewBox="0 0 24.6 23.6"><g fill="#4179A6"><path d="M8.5 23.6V7.7h5c.2 0 .2.1.2.3v2c.2-.2.3-.5.5-.7.9-1.1 2-1.7 3.4-1.9 1.3-.1 2.5 0 3.6.6 1 .5 1.8 1.2 2.3 2.2.7 1.3 1 2.8 1 4.3v9.2h-5.3v-.3-8.1c0-.7-.1-1.4-.3-2.1-.4-1.1-1.4-1.7-2.6-1.6-1.3.1-2.1.9-2.6 2.1-.1.4-.1.8-.1 1.3v8.5c0 .3 0 .3-.3.3H8.5c.2-.2.1-.2 0-.2zM5.6 23.6h-5c-.2 0-.2-.1-.2-.2V8c0-.2 0-.2.2-.2h5v15.8zM2.9 5.5c-1 0-1.9-.4-2.5-1.3C-.5 2.9 0 .7 1.9.2c1-.3 2-.2 2.9.4.9.6 1.2 1.5 1.1 2.6-.1 1-.7 1.7-1.7 2.1-.4.1-.8.2-1.3.2.1 0 .1 0 0 0z"/></g></svg>