<svg xmlns="http://www.w3.org/2000/svg" width="24.8" height="24.8" viewBox="0 0 24.8 24.8"><g fill="#4179A6"><path d="M1.3 0h2.3L5 5.1h.2L6.6 0h2.3L6.3 7.5v5.3H4V7.7zM9.1 5.5c0-.7.3-1.3.8-1.7.5-.4 1.3-.7 2.2-.7.8 0 1.5.2 2.1.7.5.5.8 1 .8 1.8v4.9c0 .8-.3 1.4-.8 1.9-.6.4-1.3.6-2.2.6-.9 0-1.6-.2-2.1-.7-.5-.5-.8-1.1-.8-1.9V5.5zm2 5.1c0 .3.1.5.2.6.1.1.3.2.6.2s.5-.1.6-.2c.2-.1.2-.3.2-.6V5.4c0-.2-.1-.4-.2-.5-.2-.1-.4-.2-.6-.2-.2 0-.4.1-.6.2-.2.1-.2.3-.2.5v5.2zM22.3 3.3v9.4h-2v-1c-.4.4-.8.7-1.2.9-.4.2-.8.3-1.2.3-.5 0-.8-.1-1.1-.4-.2-.3-.4-.7-.4-1.3V3.3h2v7.2c0 .2 0 .4.1.5.1.1.2.2.4.2.1 0 .3-.1.6-.2.2-.1.4-.3.6-.5V3.3h2.2zM6.2 13H0v1.7h2.1v9.9h2v-9.9h2.1zM10.3 22.5c-.2.2-.4.3-.6.5-.2.1-.4.2-.5.2-.2 0-.3 0-.4-.1-.1-.1-.1-.2-.1-.4V16H7v7.2c0 .5.1.9.3 1.1.2.3.5.4.9.4.3 0 .7-.1 1-.3.4-.2.7-.4 1-.8v.9H12V16h-1.8v6.5zM18.2 16.5c-.3-.4-.7-.5-1.3-.5-.3 0-.6.1-.8.2-.3.1-.5.3-.8.6V13h-1.8v11.6h1.8v-.7c.2.3.5.5.8.6.3.1.6.2.9.2.5 0 .9-.2 1.2-.5.3-.3.4-.8.4-1.4v-4.7c0-.7-.1-1.3-.4-1.6m-1.4 6.1c0 .3-.1.5-.2.6-.1.1-.3.2-.5.2s-.3 0-.4-.1c-.1-.1-.3-.2-.4-.3v-5.3c.1-.1.2-.2.4-.3.1-.1.3-.1.4-.1.2 0 .4.1.6.2s.2.4.2.7v4.4zM24.8 20.5v-2.2c0-.8-.2-1.4-.7-1.9-.4-.4-1.1-.6-1.9-.6-.8 0-1.5.2-2 .7-.5.5-.8 1.1-.8 1.8v3.8c0 .8.2 1.5.7 1.9.5.5 1.1.7 1.9.7.9 0 1.6-.2 2-.7.5-.4.7-1.1.7-2v-.4H23v.4c0 .5-.1.8-.2 1-.1.1-.3.2-.6.2s-.5-.1-.6-.3c-.1-.2-.2-.5-.2-.9v-1.6h3.4zm-3.4-2.2c0-.4.1-.6.2-.8.1-.2.3-.2.6-.2s.5.1.6.2c.1.2.2.4.2.8v.9h-1.6v-.9z"/></g></svg>