<svg xmlns="http://www.w3.org/2000/svg" width="16" height="13.1" viewBox="0 0 16 13.1"><path fill="#4E4E4E" d="M0 11.6c1.8.1 3.3-.3 4.8-1.4-.7 0-1.4-.2-1.9-.7-.5-.4-.9-1-1.2-1.6.5.1 1 .1 1.4 0C1.5 7.4.7 6.3.5 4.6c.5.2 1 .4 1.5.4C.5 3.8.2 2.3 1 .6c1.8 2.1 4.1 3.3 6.8 3.5 0-.2 0-.3-.1-.4C7.5 2 8.7.4 10.3.1c1.1-.2 2.1.1 3 .9h.3c.6-.1 1.2-.4 1.8-.7 0 0 .1 0 .2-.1-.1.4-.3.7-.5 1l-.8.8c.2 0 .5 0 .8-.1l.9-.3c-.1.2-.3.4-.4.5l-1.1 1.1c-.1.1-.1.1-.1.3 0 3-1.1 5.6-3.4 7.6-1.2 1.1-2.7 1.7-4.2 2-1.7.3-3.4.2-5-.4-.7-.4-1.3-.7-1.8-1.1z"/></svg>