<svg xmlns="http://www.w3.org/2000/svg" width="24.6" height="24.6" viewBox="0 0 24.6 24.6"><path fill="#4179A6" d="M0 12.3V2.9C0 1.5 1 .3 2.3 0h19.4c1.5 0 2.7 1.1 2.8 2.6v19.2c0 1.4-1.1 2.6-2.5 2.8H2.7c-1.4 0-2.6-1.1-2.8-2.4v-.5c.1-3.1.1-6.2.1-9.4zm19.7-1.9c.4 1.6.3 3.1-.2 4.6-.6 1.5-1.5 2.7-2.8 3.6-2.4 1.6-5.5 1.8-8 .3-1.3-.7-2.3-1.7-2.9-3-.9-1.7-1.2-3.6-.7-5.5H3v10.4c0 .6.4 1 1 1H20.9c.6 0 1-.4 1-1V10.6v-.1c-.8-.1-1.5-.1-2.2-.1zm-7.4-2.8c-2.6 0-4.7 2.1-4.7 4.7S9.7 17 12.3 17s4.7-2.1 4.7-4.7c.1-2.6-2.1-4.7-4.7-4.7zm7.1 0h1.4c.6 0 1-.4 1-1V3.8c0-.6-.4-1-1-1H18c-.5 0-1 .4-1 .9v2.8c0 .5.4.9 1 .9.5.2 1 .2 1.4.2z"/></svg>